<svg xmlns="http://www.w3.org/2000/svg" viewBox="0 0 679.73615 144.54311">
  <defs>
    <style>
      .cls-1 {
        fill: #fff;
      }
    </style>
  </defs>
  <g id="Capa_2" data-name="Capa 2">
    <g id="Capa_1-2" data-name="Capa 1">
      <g>
        <path class="cls-1" d="M185.41194,3.15763h13.431V67.33305h-13.431Z"/>
        <path class="cls-1" d="M208.40479,19.65734h12.9863v7.82735h.26684c2.44605-5.47025,7.33815-8.80577,14.54287-8.80577,10.49578,0,16.45524,6.71551,16.45524,17.87839V67.33305H239.66975V39.22573c0-6.22631-2.93526-9.7842-8.76131-9.7842s-9.51735,4.26947-9.51735,10.49578V67.33305h-12.9863Z"/>
        <path class="cls-1" d="M256.74761,19.65734h13.87577l9.96209,36.20152h.26684L290.681,19.65734h13.56445L287.87914,67.33305H273.24732Z"/>
        <path class="cls-1" d="M308.60385,6.76a6.94022,6.94022,0,0,1,13.87576,0,6.94022,6.94022,0,0,1-13.87576,0Zm.44473,12.89735h12.9863V67.33305h-12.9863Z"/>
        <path class="cls-1" d="M334.08723,53.991V29.44153h-6.62657V19.65734h6.62657V8.00525h13.11971V19.65734h8.71683v9.78419h-8.71683V52.56781c0,4.44736,2.00132,5.95947,5.915,5.95947a22.36922,22.36922,0,0,0,2.80184-.22237v9.51735a40.57822,40.57822,0,0,1-6.27078.48921C339.06827,68.31147,334.08723,64.2199,334.08723,53.991Z"/>
        <path class="cls-1" d="M360.81587,53.67965v-.089c0-8.67235,6.71552-13.74234,18.5455-14.49839l11.7855-.71158V35.44547c0-4.225-2.75736-6.84894-7.82735-6.84894-4.84763,0-7.78288,2.26816-8.40551,5.33684l-.089.40026H362.9506l.04448-.53368c.71157-8.80578,8.27209-15.121,20.85812-15.121,12.31919,0,20.28,6.35972,20.28,15.966v32.6881h-12.9863V60.21727H390.88c-2.71289,4.8921-7.78288,7.87183-14.05366,7.87183C367.26454,68.0891,360.81587,62.08517,360.81587,53.67965Zm20.23549,4.93657c5.82605,0,10.09551-3.73578,10.09551-8.71683V46.47493l-9.82866.62263c-5.02552.31131-7.64947,2.446-7.64947,5.826v.08895C373.66874,56.526,376.55953,58.61622,381.05136,58.61622Z"/>
        <path class="cls-1" d="M410.75974,43.45072v-.04447c0-15.25445,9.11709-24.72733,23.39312-24.72733,12.94182,0,21.16944,7.96077,21.65865,18.27865v.31132H443.75916l-.089-.40026c-.80052-4.53631-3.95815-8.00525-9.33946-8.00525-6.35972,0-10.36235,5.47025-10.36235,14.58734v.04447c0,9.33946,4.00263,14.63182,10.40683,14.63182,5.20341,0,8.45-3.2021,9.33946-8.00525l.04447-.40026H455.856v.26684c-.62263,10.40683-8.85025,18.32313-21.5697,18.32313C419.74341,68.31147,410.75974,58.83859,410.75974,43.45072Z"/>
        <path class="cls-1" d="M461.94887,6.76a6.94023,6.94023,0,0,1,13.87577,0,6.94023,6.94023,0,0,1-13.87577,0Zm.44473,12.89735h12.9863V67.33305H462.3936Z"/>
        <path class="cls-1" d="M482.31778,43.49519v-.08894c0-15.3434,9.33946-24.72733,23.571-24.72733,14.276,0,23.66,9.295,23.66,24.72733v.08894c0,15.56577-9.206,24.81628-23.61549,24.81628C491.43487,68.31147,482.31778,59.01649,482.31778,43.49519Zm34.02232,0v-.08894c0-9.206-4.136-14.54287-10.4513-14.54287-6.27078,0-10.36235,5.33683-10.36235,14.54287v.08894c0,9.33946,4.04709,14.63182,10.4513,14.63182C512.293,58.127,516.3401,52.79018,516.3401,43.49519Z"/>
        <path class="cls-1" d="M536.2198,19.65734h12.9863v7.82735h.26684c2.44605-5.47025,7.33815-8.80577,14.54287-8.80577,10.49577,0,16.45524,6.71551,16.45524,17.87839V67.33305h-12.9863V39.22573c0-6.22631-2.93526-9.7842-8.7613-9.7842S549.2061,33.711,549.2061,39.93731V67.33305H536.2198Z"/>
        <path class="cls-1" d="M586.9642,43.58414v-.04447c0-15.1655,8.93919-24.86075,22.90391-24.86075s22.726,9.47288,22.726,23.88233v4.00262H599.7726c.13342,7.605,4.26946,12.05235,10.896,12.05235,5.33684,0,8.58341-2.93526,9.51736-5.60367l.08894-.26684h11.91893l-.13342.48921c-1.46763,7.02683-8.04972,15.07655-21.65865,15.07655C595.81445,68.31147,586.9642,58.83859,586.9642,43.58414ZM599.906,38.38073h20.23549c-.80052-6.5821-4.66973-10.00656-10.051-10.00656C604.75364,28.37417,600.751,31.93205,599.906,38.38073Z"/>
        <path class="cls-1" d="M637.30833,53.19044l-.04448-.40026h12.675l.08895.40026c.845,3.73579,3.64684,5.915,8.85025,5.915,4.8921,0,7.87183-1.91236,7.87183-4.981v-.04448c0-2.535-1.601-4.00262-6.27078-5.02551l-8.0942-1.69c-9.25051-1.95684-13.92024-6.5821-13.92024-13.69787v-.04448c0-9.07262,7.82736-14.94313,19.96865-14.94313,12.675,0,19.74629,6.71551,20.0576,15.07655v.44474h-11.9634l-.04447-.35579c-.44474-3.42447-3.24658-6.00394-8.04973-6.00394-4.49183,0-7.29367,2.00131-7.29367,5.07v.04448c0,2.44605,1.64552,4.0471,6.44868,5.07l8.09419,1.73447c9.96209,2.09026,14.05366,6.00394,14.05366,13.03077v.04447c0,9.33946-8.5834,15.47682-20.85812,15.47682C645.66937,68.31147,638.33122,62.21859,637.30833,53.19044Z"/>
        <path class="cls-1" d="M185.41194,79.38927h11.741l28.9968,41.71625h.26684V79.38927h13.38656v64.17542H228.15108l-29.08574-42.02756h-.26685v42.02756H185.41194Z"/>
        <path class="cls-1" d="M249.14262,126.66472V95.889h12.9863v28.06285c0,6.22631,2.93526,9.82867,8.7613,9.82867s9.51736-4.26947,9.51736-10.49577V95.889h12.98629v47.67571H280.40758v-7.87183h-.26685c-2.446,5.47026-7.33814,8.85025-14.54287,8.85025C255.10209,144.54311,249.14262,137.8276,249.14262,126.66472Z"/>
        <path class="cls-1" d="M315.40831,135.426h-.26684v8.13867h-12.9863V79.38927h12.9863v24.7718h.26684a15.48241,15.48241,0,0,1,14.72077-9.25051c11.9634,0,19.39049,9.25051,19.39049,24.7718v.04448c0,15.47681-7.42709,24.81627-19.435,24.81627C323.23567,144.54311,317.98778,141.07417,315.40831,135.426Zm20.9026-15.69918v-.04448c0-8.71683-4.09157-14.00919-10.54025-14.00919-6.27078,0-10.62919,5.42578-10.62919,14.00919v.04448c0,8.62788,4.31394,14.05366,10.62919,14.05366C332.21934,133.7805,336.31091,128.39919,336.31091,119.72684Z"/>
        <path class="cls-1" d="M354.45614,119.81578v-.04447c0-15.1655,8.9392-24.86075,22.90391-24.86075s22.726,9.47288,22.726,23.88233v4.00263H367.26454c.13342,7.605,4.26947,12.05234,10.896,12.05234,5.33683,0,8.58341-2.93525,9.51735-5.60367l.089-.26684h11.91893l-.13342.48921c-1.46763,7.02683-8.04973,15.07655-21.65865,15.07655C363.30639,144.54311,354.45614,135.07023,354.45614,119.81578Zm12.94182-5.20341h20.2355c-.80053-6.58209-4.66973-10.00656-10.051-10.00656C372.24559,104.60581,368.243,108.1637,367.398,114.61237Z"/>
        <path class="cls-1" d="M404.09353,140.90111a2.97587,2.97587,0,1,1,2.97586,2.97587A2.94061,2.94061,0,0,1,404.09353,140.90111Z"/>
        <path class="cls-1" d="M411.79037,133.70025v-.01837c0-6.30075,3.76575-10.21346,9.66237-10.21346,5.34554,0,8.7439,3.28815,8.946,7.54988v.12859h-4.97815l-.03674-.16533a3.7374,3.7374,0,0,0-3.8576-3.30652c-2.62684,0-4.2801,2.25946-4.2801,6.02521v.01837c0,3.8576,1.65326,6.04358,4.29847,6.04358a3.72735,3.72735,0,0,0,3.8576-3.30652l.01837-.16532h4.99652v.11021c-.25718,4.29848-3.65554,7.56825-8.90923,7.56825C415.501,143.96882,411.79037,140.05611,411.79037,133.70025Z"/>
        <path class="cls-1" d="M432.29077,133.71862v-.03674c0-6.33749,3.8576-10.21346,9.73585-10.21346,5.89662,0,9.7726,3.83923,9.7726,10.21346v.03674c0,6.42934-3.8025,10.2502-9.75423,10.2502C436.05652,143.96882,432.29077,140.12959,432.29077,133.71862Zm14.05269,0v-.03674c0-3.80249-1.70836-6.00684-4.31684-6.00684-2.5901,0-4.2801,2.20435-4.2801,6.00684v.03674c0,3.8576,1.67163,6.04358,4.31684,6.04358C444.67184,139.7622,446.34346,137.55785,446.34346,133.71862Z"/>
        <path class="cls-1" d="M454.55465,123.87255h5.3639v3.30652h.11022a5.63692,5.63692,0,0,1,5.51086-3.71065,5.21476,5.21476,0,0,1,5.419,4.05967h.11022a6.25229,6.25229,0,0,1,6.11705-4.05967c3.85761,0,6.44771,2.66358,6.44771,6.6314v13.46487h-5.3639V131.4408c0-2.27782-1.13891-3.52695-3.21467-3.52695a3.34381,3.34381,0,0,0-3.38,3.67391v11.97693h-5.16184V131.27547c0-2.11249-1.194-3.36162-3.17793-3.36162-2.039,0-3.41673,1.543-3.41673,3.76575v11.88509h-5.3639Z"/>
      </g>
      <path class="cls-1" d="M152.42656,21.54269c32.333,32.49255-20.447,80.71566-46.03926,97.2871-4.098,2.65356-13.13333-1.98142-7.54169-5.602,16.09546-10.42213,30.84427-23.79685,41.52805-39.82448,8.39354-12.59187,16.16668-30.55125,6.0126-44.34941-10.53558-14.31636-40.38513-26.156-63.5867,19.53826-1.99527,3.92938-8.56762,3.29814-10.48774-.29C44.934-2.85574,7.27614,18.97433,11.097,52.49647,14.00611,78.02,43.628,116.902,94.77065,135.29667c6.68241,2.40342-.76795,8.19319-5.67136,6.42951C24.0657,118.33551-21.97434,54.00662,10.877,20.45233,25.67739,5.33523,55.6272,4.2301,77.39951,37.35493,101.87622-1.77218,136.37293,5.40985,152.42656,21.54269Z"/>
    </g>
  </g>
</svg>
