<svg xmlns="http://www.w3.org/2000/svg" viewBox="0 0 494.32422 339.94546">
  <defs>
    <style>
      .cls-1 {
        fill: #ef3c5a;
      }
    </style>
  </defs>
  <g id="Capa_2" data-name="Capa 2">
    <g id="Capa_1-2" data-name="Capa 1">
      <g>
        <g>
          <path class="cls-1" d="M0,192.56H13.431V256.7354H0Z"/>
          <path class="cls-1" d="M22.99286,209.05968H35.97915V216.887H36.246c2.446-5.47026,7.33814-8.80578,14.54287-8.80578,10.49577,0,16.45523,6.71552,16.45523,17.87839V256.7354H54.25781V228.62807c0-6.2263-2.93526-9.78419-8.7613-9.78419s-9.51736,4.26946-9.51736,10.49577V256.7354H22.99286Z"/>
          <path class="cls-1" d="M71.33568,209.05968H85.21144l9.96209,36.20152h.26685l9.82866-36.20152H118.8335L102.46721,256.7354H87.83539Z"/>
          <path class="cls-1" d="M123.19191,196.16233a6.94023,6.94023,0,1,1,6.93788,6.76A6.82553,6.82553,0,0,1,123.19191,196.16233Zm.44474,12.89735h12.98629V256.7354H123.63665Z"/>
          <path class="cls-1" d="M148.67529,243.39331V218.84388h-6.62657v-9.7842h6.62657V197.40759H161.795v11.65209h8.71683v9.7842H161.795v23.12628c0,4.44736,2.00131,5.95946,5.915,5.95946a22.36955,22.36955,0,0,0,2.80184-.22237v9.51735a40.57822,40.57822,0,0,1-6.27078.48921C153.65634,257.71381,148.67529,253.62224,148.67529,243.39331Z"/>
          <path class="cls-1" d="M175.40393,243.082v-.08895c0-8.67236,6.71552-13.74235,18.5455-14.4984l11.78551-.71158v-2.93526c0-4.225-2.75737-6.84893-7.82736-6.84893-4.84762,0-7.78288,2.26815-8.40551,5.33683l-.089.40026H177.53867l.04447-.53368c.71158-8.80578,8.27209-15.121,20.85813-15.121,12.31919,0,20.28,6.35973,20.28,15.966V256.7354H205.73494v-7.11578h-.26684c-2.71289,4.89209-7.78289,7.87183-14.05367,7.87183C181.85261,257.49145,175.40393,251.48751,175.40393,243.082Zm20.2355,4.93657c5.826,0,10.09551-3.73579,10.09551-8.71683v-3.42447l-9.82867.62263c-5.02552.31132-7.64946,2.44605-7.64946,5.826v.089C188.25681,245.92831,191.14759,248.01857,195.63943,248.01857Z"/>
          <path class="cls-1" d="M225.3478,232.85306v-.04447c0-15.25445,9.11709-24.72733,23.39312-24.72733,12.94182,0,21.16944,7.96078,21.65865,18.27866v.31131H258.34722l-.08894-.40026c-.80053-4.53631-3.95816-8.00525-9.33946-8.00525-6.35973,0-10.36235,5.47025-10.36235,14.58734v.04448c0,9.33946,4.00262,14.63182,10.40682,14.63182,5.20341,0,8.45-3.2021,9.33946-8.00525l.04447-.40027h12.09683v.26685c-.62263,10.40682-8.85025,18.32312-21.56971,18.32312C234.33147,257.71381,225.3478,248.24093,225.3478,232.85306Z"/>
          <path class="cls-1" d="M276.53693,196.16233a6.94023,6.94023,0,1,1,6.93789,6.76A6.82553,6.82553,0,0,1,276.53693,196.16233Zm.44474,12.89735H289.968V256.7354H276.98167Z"/>
          <path class="cls-1" d="M296.90585,232.89754v-.08895c0-15.3434,9.33946-24.72733,23.571-24.72733,14.276,0,23.66,9.295,23.66,24.72733v.08895c0,15.56576-9.206,24.81627-23.61548,24.81627C306.02294,257.71381,296.90585,248.41883,296.90585,232.89754Zm34.02231,0v-.08895c0-9.206-4.136-14.54287-10.4513-14.54287-6.27078,0-10.36235,5.33683-10.36235,14.54287v.08895c0,9.33946,4.0471,14.63182,10.4513,14.63182C326.88106,247.52936,330.92816,242.19252,330.92816,232.89754Z"/>
          <path class="cls-1" d="M350.80787,209.05968h12.98629V216.887h.26684c2.44605-5.47026,7.33815-8.80578,14.54288-8.80578,10.49577,0,16.45523,6.71552,16.45523,17.87839V256.7354H382.07282V228.62807c0-6.2263-2.93526-9.78419-8.7613-9.78419s-9.51736,4.26946-9.51736,10.49577V256.7354H350.80787Z"/>
          <path class="cls-1" d="M401.55226,232.98649V232.942c0-15.1655,8.9392-24.86075,22.90391-24.86075s22.726,9.47288,22.726,23.88233v4.00263H414.36066c.13342,7.605,4.26947,12.05235,10.896,12.05235,5.33683,0,8.5834-2.93526,9.51735-5.60368l.089-.26684h11.91893l-.13343.48921c-1.46762,7.02683-8.04972,15.07655-21.65865,15.07655C410.40251,257.71381,401.55226,248.24093,401.55226,232.98649Zm12.94182-5.20342h20.2355c-.80053-6.58209-4.66973-10.00656-10.051-10.00656C419.34171,217.77651,415.33908,221.3344,414.49408,227.78307Z"/>
          <path class="cls-1" d="M451.89639,242.59279l-.04447-.40027h12.675l.08894.40027c.845,3.73578,3.64684,5.915,8.85025,5.915,4.8921,0,7.87183-1.91237,7.87183-4.98105v-.04447c0-2.535-1.601-4.00263-6.27078-5.02552l-8.09419-1.69c-9.25052-1.95684-13.92024-6.58209-13.92024-13.69787v-.04447c0-9.07262,7.82735-14.94314,19.96865-14.94314,12.675,0,19.74628,6.71552,20.0576,15.07656v.44473h-11.9634l-.04448-.35579c-.44473-3.42446-3.24657-6.00393-8.04972-6.00393-4.49184,0-7.29368,2.00131-7.29368,5.07v.04447c0,2.446,1.64553,4.0471,6.44868,5.07l8.0942,1.73447c9.96209,2.09026,14.05366,6.00394,14.05366,13.03077v.04448c0,9.33946-8.58341,15.47681-20.85813,15.47681C460.25743,257.71381,452.91928,251.62093,451.89639,242.59279Z"/>
        </g>
        <g>
          <path class="cls-1" d="M139.825,274.79161h11.741l28.99679,41.71625h.26684V274.79161h13.38656V338.967H182.56419l-29.08575-42.02757h-.26684V338.967H139.825Z"/>
          <path class="cls-1" d="M203.55573,322.06706V291.29132H216.542v28.06285c0,6.22631,2.93525,9.82867,8.7613,9.82867s9.51735-4.26947,9.51735-10.49577V291.29132H247.807V338.967h-12.9863v-7.87183h-.26684c-2.44605,5.47025-7.33815,8.85025-14.54287,8.85025C209.5152,339.94546,203.55573,333.22994,203.55573,322.06706Z"/>
          <path class="cls-1" d="M269.82142,330.82837h-.26685V338.967H256.56828V274.79161h12.98629v24.7718h.26685a15.48242,15.48242,0,0,1,14.72076-9.25051c11.9634,0,19.3905,9.25051,19.3905,24.77181v.04447c0,15.47682-7.4271,24.81628-19.435,24.81628C277.64877,339.94546,272.40089,336.47651,269.82142,330.82837ZM290.724,315.12918v-.04447c0-8.71683-4.09157-14.00919-10.54024-14.00919-6.27078,0-10.6292,5.42578-10.6292,14.00919v.04447c0,8.62788,4.31394,14.05366,10.6292,14.05366C286.63244,329.18284,290.724,323.80153,290.724,315.12918Z"/>
          <path class="cls-1" d="M308.86925,315.21813v-.04448c0-15.1655,8.9392-24.86075,22.90391-24.86075s22.726,9.47288,22.726,23.88233v4.00263H321.67765c.13342,7.605,4.26947,12.05235,10.896,12.05235,5.33684,0,8.58341-2.93526,9.51736-5.60368l.08895-.26684h11.91892l-.13342.48921c-1.46763,7.02683-8.04972,15.07656-21.65865,15.07656C317.7195,339.94546,308.86925,330.47258,308.86925,315.21813Zm12.94182-5.20342h20.23549c-.80052-6.58209-4.66972-10.00656-10.051-10.00656C326.65869,300.00815,322.65607,303.566,321.81107,310.01471Z"/>
        </g>
      </g>
      <path class="cls-1" d="M341.08858,17.09521c42.69893,42.90967-27.00227,106.59313-60.79945,128.47737-5.41178,3.50429-17.34388-2.61666-9.95956-7.398,21.25566-13.76347,40.73294-31.42613,54.84194-52.59222,11.08451-16.62883,21.34973-40.346,7.94024-58.56785C319.19847,8.10838,279.77915-7.527,249.13915,52.81679c-2.635,5.18913-11.31441,4.35552-13.85012-.383-36.15513-67.55917-85.88612-38.73037-80.84024,5.539,3.84171,33.7064,42.96041,85.05389,110.49938,109.346,8.8248,3.174-1.01415,10.81992-7.4896,8.4908C171.5752,144.91984,110.77471,59.96708,154.15814,15.65528,173.7036-4.30836,213.25533-5.7678,242.00784,37.97687,274.33179-13.6944,319.88815-4.20982,341.08858,17.09521Z"/>
    </g>
  </g>
</svg>
