<svg xmlns="http://www.w3.org/2000/svg" xmlns:xlink="http://www.w3.org/1999/xlink" viewBox="0 0 592.47 235.66"><defs><style>.cls-1{fill:none;}.cls-2{opacity:0.77;}.cls-3{clip-path:url(#clip-path);}.cls-4{fill:#00abcc;}.cls-5{clip-path:url(#clip-path-2);}.cls-6{clip-path:url(#clip-path-3);}.cls-7{fill:#61398d;}.cls-8{clip-path:url(#clip-path-4);}.cls-9{fill:#f4b800;}.cls-10{clip-path:url(#clip-path-5);}.cls-11{fill:#d61c83;}.cls-12{clip-path:url(#clip-path-6);}.cls-13{fill:#68b32e;}.cls-14{clip-path:url(#clip-path-7);}.cls-15{clip-path:url(#clip-path-8);}.cls-16{clip-path:url(#clip-path-9);}.cls-17{clip-path:url(#clip-path-10);}</style><clipPath id="clip-path" transform="translate(0 0)"><rect class="cls-1" x="92.9" y="101.09" width="33.67" height="133.11"/></clipPath><clipPath id="clip-path-2" transform="translate(0 0)"><rect class="cls-1" x="17.04" y="3.71" width="109.52" height="113.79"/></clipPath><clipPath id="clip-path-3" transform="translate(0 0)"><rect class="cls-1" x="130.51" y="2.92" width="109.52" height="113.79"/></clipPath><clipPath id="clip-path-4" transform="translate(0 0)"><rect class="cls-1" x="248.39" width="118.72" height="116.7"/></clipPath><clipPath id="clip-path-5" transform="translate(0 0)"><rect class="cls-1" x="367.11" y="2.92" width="106.41" height="110.87"/></clipPath><clipPath id="clip-path-6" transform="translate(0 0)"><rect class="cls-1" x="473.52" width="118.95" height="116.7"/></clipPath><clipPath id="clip-path-7" transform="translate(0 0)"><rect class="cls-1" y="118.79" width="88.95" height="116.86"/></clipPath><clipPath id="clip-path-8" transform="translate(0 0)"><rect class="cls-1" x="403.48" y="121.87" width="33.67" height="110.87"/></clipPath><clipPath id="clip-path-9" transform="translate(0 0)"><rect class="cls-1" x="130.51" y="118.95" width="109.52" height="113.79"/></clipPath><clipPath id="clip-path-10" transform="translate(0 0)"><rect class="cls-1" x="248.28" y="118.95" width="118.95" height="116.7"/></clipPath></defs><g id="Capa_2" data-name="Capa 2"><g id="Capa_1-2" data-name="Capa 1"><g class="cls-2"><g class="cls-3"><path class="cls-4" d="M109.74,117.49a16.83,16.83,0,0,1-16.82-16.41c0,.16,0,.3,0,.45V217.36a16.84,16.84,0,1,0,33.67,0V101.53c0-.15,0-.29,0-.43a16.81,16.81,0,0,1-16.8,16.39" transform="translate(0 0)"/></g></g><g class="cls-2"><g class="cls-5"><path class="cls-4" d="M126.57,60c0-37.48-22-56.33-54.76-56.33S17,22.78,17,60v40.62a16.84,16.84,0,0,0,33.67,0V60c0-17.51,8.53-24.91,21.1-24.91S92.9,42.53,92.9,60v40.62c0,.14,0,.28,0,.42a16.82,16.82,0,0,1,33.62,0c0-.15,0-.29,0-.44Z" transform="translate(0 0)"/></g></g><path class="cls-4" d="M109.73,84.7a16.4,16.4,0,1,0,16.81,16.4,16.83,16.83,0,0,0-16.81-16.4" transform="translate(0 0)"/><g class="cls-2"><g class="cls-6"><path class="cls-7" d="M130.51,60.37V19.75a16.84,16.84,0,0,1,33.67,0V60.37c0,17.51,8.53,24.91,21.09,24.91s21.1-7.4,21.1-24.91V19.75a16.84,16.84,0,0,1,33.67,0V60.37c0,37.26-22,56.34-54.77,56.34s-54.76-18.86-54.76-56.34" transform="translate(0 0)"/></g></g><g class="cls-2"><g class="cls-8"><path class="cls-9" d="M248.39,58.35C248.39,24.69,273.08,0,308.09,0s59,24.69,59,58.35a9.43,9.43,0,0,1-9.42,9.43H289.78a4.58,4.58,0,0,0-4.14,6.57c4.23,8.43,12.6,12.28,22.45,12.28,7.58,0,13.64-1.25,18-4.72a14.19,14.19,0,0,1,8.86-3.36h1.42c14.25,0,20.2,18.17,8.75,26.67-9.83,7.29-22.52,11.48-37,11.48-35,0-59.7-24.68-59.7-58.35m76.73-11.89a4.59,4.59,0,0,0,3.67-7.35c-4.68-6.25-11.93-9-20.7-9s-16,2.91-20.49,9.1a4.6,4.6,0,0,0,3.72,7.29Z" transform="translate(0 0)"/></g></g><g class="cls-2"><g class="cls-10"><path class="cls-11" d="M383.88,2.92h0a16.75,16.75,0,0,1,16,11.78l16.69,53.77a4.31,4.31,0,0,0,8.22,0l16.78-54.06a16.34,16.34,0,1,1,31,10.35l-25,69.8a29,29,0,0,1-54.62,0L368.11,25.32a16.75,16.75,0,0,1,15.77-22.4" transform="translate(0 0)"/></g></g><g class="cls-2"><g class="cls-12"><path class="cls-13" d="M473.52,59.7C473.52,24,498.21,0,533.45,0c34.78,0,59,23.12,59,59.47V98.3A15.49,15.49,0,0,1,577,113.79h-7.08a8.42,8.42,0,0,1-8.41-8.41,2.75,2.75,0,0,0-4.85-1.79c-6.74,8.5-17.09,13.11-29.49,13.11-24.69,0-53.64-18.4-53.64-57m85.29-1.35c0-15.93-10.33-26.93-25.59-26.93s-25.58,11-25.58,26.93S518,85.28,533.22,85.28s25.59-11,25.59-26.93" transform="translate(0 0)"/></g></g><g class="cls-2"><g class="cls-14"><path class="cls-11" d="M16.43,196.46l2.19.21a13.75,13.75,0,0,1,10.11,6.14c1.83,2.6,5.57,4.17,11.46,4.74,10.28,1,14-2.25,14.43-6.94.71-7.37-7.26-8.82-17.39-11.38-15-3.71-39.62-9.93-37-36.51,2.17-22.34,21.33-36.27,48.8-33.6,12.86,1.24,23.09,5.74,30.19,12.22,10.48,9.55,2.38,27-11.73,25.65l-1.76-.18a13.83,13.83,0,0,1-9.47-5.58c-1.89-2.42-5.16-3.95-9.47-4.37-8.26-.8-12,3.12-12.46,7.58-.65,6.7,7.31,8.38,17.43,10.94,15.65,3.77,39.58,10.38,37.05,36.51C86.56,224.68,66.32,238.05,38,235.3c-14.42-1.4-25.87-6.47-33.42-13.92-9.78-9.63-1.75-26.25,11.9-24.92" transform="translate(0 0)"/></g></g><g class="cls-2"><g class="cls-15"><path class="cls-9" d="M420.32,121.87h0a16.84,16.84,0,0,1,16.83,16.83v77.21a16.83,16.83,0,1,1-33.66,0V138.7a16.83,16.83,0,0,1,16.83-16.83" transform="translate(0 0)"/></g></g><g class="cls-2"><g class="cls-16"><path class="cls-13" d="M130.51,175.28c0-37.25,22-56.33,54.76-56.33S240,137.81,240,175.28v40.63a16.84,16.84,0,0,1-16.84,16.83h0a16.84,16.84,0,0,1-16.83-16.83V175.28c0-17.5-8.53-24.91-21.1-24.91s-21.09,7.41-21.09,24.91v40.63a16.84,16.84,0,0,1-33.67,0Z" transform="translate(0 0)"/></g></g><g class="cls-2"><g class="cls-17"><path class="cls-7" d="M248.28,178.65C248.28,143,273,119,308.2,119c34.79,0,59,23.12,59,59.48v38.82a15.49,15.49,0,0,1-15.49,15.49H344.3a8,8,0,0,1-8-8.05,2.88,2.88,0,0,0-5.08-1.86c-6.75,8.31-17,12.83-29.26,12.83-24.69,0-53.64-18.41-53.64-57m85.28-1.35c0-15.93-10.32-26.93-25.58-26.93s-25.59,11-25.59,26.93,10.32,26.94,25.59,26.94,25.58-11,25.58-26.94" transform="translate(0 0)"/></g></g></g></g></svg>