<svg xmlns="http://www.w3.org/2000/svg" viewBox="0 0 430.83 193.48"><defs><style>.cls-1{fill:#fff;}</style></defs><g id="Capa_2" data-name="Capa 2"><g id="Capa_1-2" data-name="Capa 1"><path class="cls-1" d="M120.83,21.58c.34,0,.67,1.36,1,4.06a73.54,73.54,0,0,1,.51,9.12,32.58,32.58,0,0,1-1.27,8.11,50.43,50.43,0,0,1-2.53,7.61c-.34.85-.72,1.77-1.14,2.79s-.81,1.94-1.14,2.79a37,37,0,0,1-5.33,11.15c-1.35,1.86-2.15,2.75-2.41,2.66s.13-1.14,1.15-3.17a13.77,13.77,0,0,1,.88-1.9c.26-.42.21-.46-.12-.13-.68.68-1.19.85-1.52.51-.18-.17-.26-.21-.26-.13s.08.22.26.38c.16.51-.26,1.44-1.27,2.79s-1.52,1.86-1.52,1.52a1.62,1.62,0,0,1,1-1.52c.67-.67,1-1.09,1-1.26,0-.34-.63-.09-1.9.76a18.48,18.48,0,0,0-2.4,1.77c0,.34-.26.51-.77.51-.17,0-.08-.26.26-.76a14.65,14.65,0,0,1,1.77-2l2.54-2.79-1.78-.76a3.43,3.43,0,0,0-1.77-.38c-.34.09-.93.63-1.78,1.65a16.57,16.57,0,0,1-1.64,1.9l-1.4,1.39c-.84.85-1,1.23-.5,1.14A5.88,5.88,0,0,0,101.06,68q2-1.77,2.28-1.65c.16.09-.17.72-1,1.9a3.59,3.59,0,0,1-3,2,2.94,2.94,0,0,0-2,.51,1.35,1.35,0,0,1-1.26.38c-.51-.09-.76-.29-.76-.64s-.34-.84-1-1.52c-.5-.5-.76-.59-.76-.25s-.46.63-1.39.89-1.57.21-1.9-.13-.34-1,0-2q.75-1.77,0-1.77c-.34,0-.68-.51-1-1.52-.17-.85-.55-1.31-1.14-1.4s-.8.3-.63,1.14q.51.77-1,2.28l-1.52,1.53v-2a3.51,3.51,0,0,0-.76-2.54c-.34-.33,0-1.6.89-3.8a37.28,37.28,0,0,1,3.68-6.59,22,22,0,0,1,1.14-2A8.48,8.48,0,0,0,90.66,49c.85-1,1.53-1.44,2-1.27.68.34.76.25.26-.25,0-.51.08-.76.25-.76q1.26,0,1.77-9.38c0-2.7.26-4.31.76-4.82.68,0,.68-.33,0-1q-.75-1,0-.51c.51.17.59.09.26-.25-.34-.51-1.27-.55-2.79-.13A16.07,16.07,0,0,0,88.38,33a6.9,6.9,0,0,1-2.79,1.27c-.17,0-.67.42-1.52,1.26-.34.34-1.18,1.14-2.53,2.41a50.67,50.67,0,0,1-4.82,3.93c-1.52,1.18-2.87,2.33-4,3.42S70.26,47.56,69,48.83s-2.66,2.75-4.18,4.44-3.3,3.72-5.32,6.08q-2.3,2.79-2.79,2.28c-.17-.16-.26-.16-.26,0A7.06,7.06,0,0,1,55.18,64q-1.27,1.9-3,4.06t-3.29,3.8c-1,1.1-1.61,1.65-1.78,1.65,0-.17,0-.21-.12-.13a.5.5,0,0,0-.13.38,4.11,4.11,0,0,1-.63,1.65c-.43.76-.89,1.64-1.4,2.66Q43.52,80.39,42,82.8t-2.67,4.56q-1.14,2.16-2.4,5.2a1.43,1.43,0,0,0,1,.25,11.71,11.71,0,0,1,2,.25,13.49,13.49,0,0,1,2,.13c.5.09.67.13.5.13,0,.5.85.59,2.54.25,1.68,0,2.7.25,3,.76.34.68.67,1,1,1s.42-.26.26-.76q-1-1.53,6.08.76l7.1,1.52c.84.17,1.56.29,2.15.38a2.13,2.13,0,0,1,1.14.38,7.45,7.45,0,0,0,1.78.5,11.63,11.63,0,0,0,2.28.26l.76.76c0,.5.42.59,1.27.25a1,1,0,0,1,1.52.51L76,101.43c.68.34,1.56.76,2.66,1.27a14.17,14.17,0,0,1,2.92,1.77l5.83,3.8a47.43,47.43,0,0,1,7,6.21q3.42,3.69,3.42,5.71a2.46,2.46,0,0,0,.76,1.77,39.25,39.25,0,0,1,4.82,6.72q2.28,3.93,2.28,5.7,0,1.27-.51,0c-.17-.33-.29-.21-.38.38a12.7,12.7,0,0,0,.13,2.92c0,1.86,0,3.34-.13,4.43a9.94,9.94,0,0,1-1.14,3.68c-.68,2.37-1.18,3.55-1.52,3.55-.17,0-.59.68-1.27,2a10.87,10.87,0,0,1-2.15,2.78c-1.27,1.36-2.58,2.79-3.93,4.31s-2.62,2.83-3.8,3.93-1.86,1.57-2,1.4l-2,1.52c-1,1.35-1.86,2-2.53,2-.51,0-.76.18-.76.51a.67.67,0,0,1-.76.76,9.77,9.77,0,0,0-1.9.76,33.91,33.91,0,0,0-3.68,2,34.07,34.07,0,0,1-3.68,2l-2.15,1a7.17,7.17,0,0,0-2,.64c-1,.42-2.11.88-3.29,1.39s-2.41,1-3.68,1.52a18.75,18.75,0,0,1-3.17,1,21.52,21.52,0,0,1-2.79,1,6.63,6.63,0,0,1-1.9.76c-1.1.34-2.32.68-3.67,1q-3.81.76-7.48,1.14a35.92,35.92,0,0,1-8-.12c-2-.34-3-.59-3-.76,0-.51-.42-.59-1.26-.26s-1.19.26-1-.25c.17-.17.08-.38-.25-.63a4.31,4.31,0,0,0-1.27-.64c-1.18-.5-1.86-1-2-1.52-.34-.34.34-.16,2,.51,3.89,1.86,6.67,2.79,8.37,2.79.67,0-.09-.42-2.29-1.27l-3.42-1.14a22.13,22.13,0,0,1-2.91-1.14,15.84,15.84,0,0,0-2.92-1.4c-.42-.08-.47.22-.12.89.33.34.42.47.25.38a3.38,3.38,0,0,1-.76-.63,1.17,1.17,0,0,1-.76-1.27q.49-.51,0-.51a3.5,3.5,0,0,0-1.78-.25q-3.79-.51-13.18-9.13a47.21,47.21,0,0,1-6.71-7.35,15,15,0,0,1-2.16-6.33A13.07,13.07,0,0,1,0,150c.09-.42.38-.55.89-.38.51,0,.93,1,1.27,3a13.16,13.16,0,0,0,4.05,7.86c1,.68,1.44.93,1.27.76l-.76-1.77a11.28,11.28,0,0,0-.51-2.28c-.34-1.18-.67-2.45-1-3.81-.85-3.71-1.23-6-1.14-7s.8-.71,2.15.64c1,.84,1.69.93,2,.25a1.47,1.47,0,0,1,1-.51,5.87,5.87,0,0,1,1.77.51,10.42,10.42,0,0,0,1.77.51c.17,0,.26-.42.26-1.27a3.21,3.21,0,0,1,1.39-2.92,1.58,1.58,0,0,1,2.41.64c.51.67.76.67.76,0s.51-1,1.52-1,1.52.17,1.52.51a8.65,8.65,0,0,0,1.27,2l1,1-.5-1a1.89,1.89,0,0,1,0-2.28c.5-1,.76-1,.76,0a.67.67,0,0,0,.76.76c.5-.34.92-.17,1.27.51s.67.84,1,.5c.67-.34.76-.08.25.76-.17.68.34,1.78,1.52,3.3,1.52,1.52,2.37,2.2,2.54,2,.51,0,.59.17.25.5s.59,1.1,2.79,2.28a11.66,11.66,0,0,0,3.93,1.65,41.26,41.26,0,0,0,7,.38,12.55,12.55,0,0,0,4.69-1.27,41,41,0,0,0,6.34-3.54q3.42-2.3,7.22-5.33a88.66,88.66,0,0,0,7.35-6.59,49.11,49.11,0,0,0,7.35-8.74,19,19,0,0,0,2.54-7l.25-3.3L78,121c-1.69.17-2.12,0-1.27-.51q.77-.51,0-.51a2.07,2.07,0,0,0-1.52.51c-.51.51-1.35.59-2.53.25a22.18,22.18,0,0,1-4.31-.5,4.21,4.21,0,0,0-1.65-.13c-.25.09-.21.21.13.38.67.34-.17.63-2.54.89A30.79,30.79,0,0,1,57,121.2q-8.37-1.26-4.82,0a14.2,14.2,0,0,0,4.31.51c1.86,0,3,.25,3.3.76.34.34,0,.51-1,.51a18.54,18.54,0,0,1-3-.38c-1.35-.26-2.78-.51-4.31-.77s-2.95-.5-4.31-.76a12,12,0,0,1-3-.88,15.07,15.07,0,0,0-2.53-.51.45.45,0,0,0-.51.51c0,.67.51,1,1.52,1,.68,0,.85.09.51.25-.17.17-.68.17-1.52,0a21.14,21.14,0,0,1-2.79-.76c-1-.33-1.9-.59-2.66-.76a11.25,11.25,0,0,0-1.4-.25c-.34.34-.5.09-.5-.76a.67.67,0,0,0-.76-.76c-.85,0-1.1-.42-.76-1.27s.25-1.27-.26-1.27-.59.17-.25.51c.34.68.21.93-.38.76a4,4,0,0,1-1.9-1.52,12.25,12.25,0,0,0-3-2.28A8.84,8.84,0,0,1,24,109.54c-.85-1.35-1.65-2.53-2.41-3.55s-1.39-1.52-1.9-1.52c-.34,0-.51-.42-.51-1.27a10.77,10.77,0,0,0-1-4.31c-.68-1.52-1.27-2.28-1.78-2.28-.67,0-1.18-.42-1.52-1.26-.5-.34-.42.34.26,2a8.58,8.58,0,0,0,2.28,3.81,2.45,2.45,0,0,1,.76,1.77c0,.68-.34.76-1,.25a3.88,3.88,0,0,1-2.28-1.52c-.67-.67-1-.76-1-.25,0,.17.34.59,1,1.27s1,1.1,1,1.26c0,.51-.55.26-1.65-.76a17,17,0,0,1-2.92-3.55,16.36,16.36,0,0,1-1.39-4.94c-.42-2.45-.76-5-1-7.73s-.38-5.07-.38-7.1.25-3,.76-3c.67,0,1-.25,1-.76a9.31,9.31,0,0,1,.38-1.52c.25-.84.55-1.73.89-2.66s.67-1.78,1-2.54.59-1.14.76-1.14c.67,0,.76-.25.25-.76-.34-.33-.25-.5.26-.5s.76-.17.76-.51c0-.51-.42-.59-1.27-.26-.51.17-.76.22-.76.13s.34-.29,1-.63c.85-.34,1-.76.51-1.27a8.59,8.59,0,0,1,.64-1.77,26.38,26.38,0,0,1,1.77-3.43c.76-1.26,1.6-2.53,2.54-3.8s1.73-2.32,2.4-3.17a4,4,0,0,1,2.41-1.64c.76-.09.72.38-.13,1.39-.5.68-.42.76.26.25a1.4,1.4,0,0,0,.25-1.77.85.85,0,0,1-.13-1.14,48.44,48.44,0,0,1,3.43-3.93l2.78-3.55c1-1.35,1.69-1.86,2-1.52a.45.45,0,0,0,.51-.51c0-.5.17-.76.51-.76.5,0,.67-.08.5-.25v-.63A2.19,2.19,0,0,1,34.52,37c.42-.5,1.09-1.3,2-2.4s2.23-2.58,3.92-4.44q3.3-3.79,8.12-8.36T58,13.22a83.25,83.25,0,0,1,8.12-6.47q3.54-2.4,4.31-2.15c.5,0,.67-.08.5-.25q-.26-.51.51-1c1-.34,1.27-.25.76.25C72,3.75,72,3.88,72,4s.3,0,.64-.12c.5-.17.76-.42.76-.76-.51-.51-.09-.93,1.26-1.27,1-.51,1.61-.72,1.78-.63s-.17.38-1,.88c-1.87,1-1.61,1.1.76.26a7.53,7.53,0,0,1,1.52-.51,7.28,7.28,0,0,1,1.77-.25c2.37-.51,4.22-.85,5.58-1S87.62.25,88.64.16,90.54,0,91.3,0a21.07,21.07,0,0,1,2.91.25,28,28,0,0,0,3.42.25c.93,0,1.4-.08,1.4-.25.17-.34.63-.38,1.39-.13A12.23,12.23,0,0,1,103,1.43a21,21,0,0,1,2.66,2,5.26,5.26,0,0,1,1.52,1.9,6.94,6.94,0,0,0,2.28,1.77,8,8,0,0,1,3.3,2,6.18,6.18,0,0,1,.76,1.14q0,.13-.51-.12-1-.51,1.78,2.28,1,1.26,1.77,2.28a3,3,0,0,1,.76,1.52c0,.51.34.76,1,.76,1,0,1.18.17.51.51-.51.17-.59.67-.25,1.52.33.34.5.34.5,0a.67.67,0,0,1,.76-.76q.51,0,.51,1.77C120,21.07,120.15,21.58,120.83,21.58ZM13.35,73.29c.17-.5.34-1,.51-1.39a12.43,12.43,0,0,1,.51-1.14,4.46,4.46,0,0,0,.25-1.27c-.17-.34-.51.09-1,1.27s-.84,1.94-1,2.28a6.28,6.28,0,0,1-.76,2.79c-.51,1-.59,1.52-.25,1.52a6.33,6.33,0,0,0,.76-1.4C12.67,75.19,13,74.31,13.35,73.29Zm-1.52,6.34c.17,0,.25-.13.25-.38a.85.85,0,0,0-.25-.63c-.17-.34-.25-.26-.25.25C11.58,79.55,11.66,79.8,11.83,79.63Zm2,93.53c1.18,1,1.43,1.53.76,1.53-.17,0-.6-.51-1.27-1.53l-.51-1ZM19.18,179a1.75,1.75,0,0,1,1.27.5c.51.68.17.68-1,0C18.76,179.17,18.67,179,19.18,179Zm1.52-26.87c0-.34-.34-.76-1-1.27l-.76-.76.51,1Q20.45,152.39,20.7,152.13ZM21,56.56c.16-.5.08-.76-.26-.76a.68.68,0,0,0-.76.76.45.45,0,0,0,.51.51ZM22.73,54q.51-.51-.51-.51c-.67,0-.84.17-.5.51l.5.5ZM23,159.22a1.6,1.6,0,0,0,.76.76c.34.17.51.09.51-.25,0-.17-.25-.42-.76-.76C23,159,22.81,159.06,23,159.22Zm4.31-47.65c.34,0,.34-.42,0-1.27-.34-.67-.59-.93-.76-.76-.34.34-.34.76,0,1.27C26.7,111.66,27,111.91,27.29,111.57Zm4.57,1a.73.73,0,0,0,.5-.25c0-.17-.17-.42-.5-.76-.51-.17-.76-.09-.76.25A.67.67,0,0,0,31.86,112.58Zm0-70a1.47,1.47,0,0,0,.5-1,.45.45,0,0,0-.5-.51c-.34,0-.51.34-.51,1A.45.45,0,0,0,31.86,42.62Zm1.77,70.47c.34,0,.51-.08.51-.25a.45.45,0,0,0-.51-.51c-.51-.51-.76-.42-.76.25C32.87,112.92,33.12,113.09,33.63,113.09ZM40,119.43c.16-.17-.64-.68-2.41-1.52s-2.92-1.18-3.42-1c-.34,0,0,.3,1,.89a5.36,5.36,0,0,0,2.28.89c.68,0,1,.17,1,.5a.6.6,0,0,0,.5.64A1.07,1.07,0,0,0,40,119.43Zm13.69,71.48a27.48,27.48,0,0,1,3.92-.63q1.65-.14,1.65.12c.17,0-.12.17-.88.51a23.56,23.56,0,0,1-2.92,1,44.62,44.62,0,0,1-8.87,1.4,29.82,29.82,0,0,1-7.61-.13l-2-.51,2-.25a28.34,28.34,0,0,1,5.58-.51c1,0,2.41-.08,4.18-.25A40.58,40.58,0,0,0,53.66,190.91Zm43.59-163c.17,0,.21-.13.13-.38a2.63,2.63,0,0,0-.63-.89l-1-1c.17-.17.09-.8-.25-1.9s-.59-1.65-.76-1.65a9.61,9.61,0,0,0-2.79,1.39q-2.28,1.39-2.28,1.65a.45.45,0,0,1-.51.51c-.84,0-2.58,1-5.19,3S78.5,33.16,75.46,36l-6.6,6.08a33.22,33.22,0,0,0-3.16,3q-1.9,2-3.68,4.05L58,53.77l5.33-5.07q5.07-4.8,6.84-6.46t2.28-1.65h.51a13.66,13.66,0,0,1-2.28,2.54c-1.52,1.52-3.47,3.29-5.83,5.32q-3.3,3.3-5.58,5.32c-1.52,1.36-2.2,1.87-2,1.53s-.5.25-2,1.77c-.68.85-1.27,1.56-1.78,2.15a3.23,3.23,0,0,0-.76,1.14c0,.35-.51,1-1.52,2s-1.35,1.44-1,1.27-.6,1.27-2.79,4.31a44.43,44.43,0,0,0-3.8,5.2q-.77,1.39,1.77-1.4L48.84,68c1-1,1.52-1.78,1.52-2.28,0-.34.34-.51,1-.51s.85-.17.51-.51c-.17-.16.13-.67.89-1.52s2.57-2.95,5.45-6.33Q63.29,51,68,46.55a71.49,71.49,0,0,1,8-6.72Q81,36.29,86,33.24a49,49,0,0,1,7-3.8c1.52-.67,2.28-1.27,2.28-1.77q0-1-.51-.51c-.34.34-.51.09-.51-.76a4.64,4.64,0,0,0-.5-2c-.17-.67-.09-1,.25-1,.17,0,.42.17.76.5a5.49,5.49,0,0,0,1.27,3c.33.35.63.64.88.89S97.25,28.09,97.25,27.92ZM52.64,95.6c-.34,0-.42,0-.25.13a2.74,2.74,0,0,0,1,.12,1.85,1.85,0,0,0,.76-.12c.17-.09.17-.13,0-.13C53.49,95.26,53,95.26,52.64,95.6Zm7.86,88.47c.51,0,.34.16-.51.5a9.51,9.51,0,0,1-3,.51c-.68,0-1,0-1-.13s.42-.21,1.26-.38A14.05,14.05,0,0,1,60.5,184.07ZM58,125.76c.17,0,.17,0,0,.13a1.67,1.67,0,0,1-.76.13c-.84,0-.93-.17-.25-.51C57.62,125.51,58,125.6,58,125.76Zm2.29,56c-1,0-1.52-.08-1.52-.25s1.09-.59,3.29-1.27c.84-.33,1.56-.59,2.16-.76s.88-.42.88-.76c0-.16.26-.25.76-.25.68.34,1,.25,1-.26,0-.33.25-.41.76-.25.33.34.5.34.5,0,0-.51.68-.93,2-1.27q2.28-1,2.28-1.26c0-.34,1.18-1.1,3.55-2.29a17.05,17.05,0,0,0,3.8-2.28,6.65,6.65,0,0,1,1.78-.76,14.72,14.72,0,0,0,3.67-2,63.26,63.26,0,0,0,6-5.07,17.76,17.76,0,0,1,3-2.67c.51-.25.76-.12.76.38,0,.68-.17,1-.5,1a3.43,3.43,0,0,0-2,1.27,56.45,56.45,0,0,1-6.21,5.19q-3.93,2.92-8.37,5.71t-8.49,4.81A20.2,20.2,0,0,1,63,181l-1.52.51a.22.22,0,0,1-.25.25Zm.76,7.61a8.16,8.16,0,0,1,2-.51c.85,0,.76.17-.25.51a4.49,4.49,0,0,1-2,.51C59.91,189.9,60,189.73,61,189.39Zm3-64.39c.16.17-.26.26-1.27.26-.85,0-1.1-.09-.76-.26A2.18,2.18,0,0,1,64.05,125Zm2.28,62.11c.51,0,.59.16.25.5a1.45,1.45,0,0,1-1,.51c-.51,0-.59-.17-.25-.51A1.42,1.42,0,0,1,66.33,187.11Zm1-62.61c.17.17-.08.25-.76.25a1.67,1.67,0,0,1-.76-.13c-.17-.08-.08-.12.26-.12Q66.83,124,67.34,124.5Zm9.89,55.26a65.1,65.1,0,0,1,6.08-4.19q1.27-.63-1.52,2.16-1.77,1.52-4.94,3.8a76.45,76.45,0,0,1-6.72,4.31A22.81,22.81,0,0,1,68,187c-.26.08-.38,0-.38-.38,0-.51.67-1,2-1.52l3-2Q74.95,181.53,77.23,179.76Zm-5.07-61.6c-.34.34-.09.51.76.51,1.18,0,1.43-.17.76-.51Zm3.3,3.8c.67-.34.76-.25.25.25-.34.68,0,1.11,1,1.27.85,0,1.27.26,1.27.76,0,.68-.42.68-1.27,0a12.24,12.24,0,0,0-1.26-.5,4.26,4.26,0,0,0-1.27-.26c-1.19,0-1.78-.16-1.78-.5s.34-.51,1-.51h1A1.49,1.49,0,0,0,75.46,122ZM75,39.07c0-.33.33-.67,1-1,.51-.51.76-.72.76-.64s-.17.3-.5.64C75.37,39.24,75,39.58,75,39.07ZM80,.54a4.52,4.52,0,0,1-2,.51c-.85,0-.76-.17.25-.51A8.35,8.35,0,0,1,80.52,0C80.69,0,80.52.21,80,.54Zm-.76,122.94a1.45,1.45,0,0,1-1-.5c-.17-.17-.21-.3-.12-.38s.29,0,.63.12C79.76,123.23,79.93,123.48,79.26,123.48Zm3.8-97.59c-.68.68-.85,1-.51.89a19.43,19.43,0,0,0,3.3-2.16c1.52-.84,2.53-1.18,3-1,.34.17.55.21.63.13s0-.13-.12-.13c-.34-.34-.09-.84.76-1.52.67-.51.8-.67.38-.51s-1.57.68-3.42,1.52c-.85.51-1.65,1-2.41,1.52A11.63,11.63,0,0,0,83.06,25.89Zm1,5.07a6.14,6.14,0,0,0,2.28-1.27l1.78-1L86.61,30c-.85.84-1.52,1.26-2,1.26C84.24,31.21,84.07,31.13,84.07,31Zm6.85,29.15c.67-1,.92-1.6.76-1.77a.73.73,0,0,0-.51.25,1.87,1.87,0,0,1-.51.38,1.89,1.89,0,0,0-.5.38c-.68,1-.93,1.61-.76,1.78C89.73,61.13,90.24,60.79,90.92,60.11ZM99,157.2c.84.34,1,1,.38,2a34.81,34.81,0,0,1-4.69,5.33,28.44,28.44,0,0,1-3.3,3.29c-.84.68-1.1.76-.76.26s.64-.93.89-1.27a5.79,5.79,0,0,1,.64-.76,16.81,16.81,0,0,0,2.28-3.17A7.74,7.74,0,0,0,95.73,160c0-1,.34-1.26,1-.76.67.85.92.85.76,0a.67.67,0,0,1,.76-.76c.34.17.42-.08.25-.76C98.52,157.2,98.69,157,99,157.2ZM92.69,56.56c.34-.84.42-1.26.26-1.26l-.26.25a1.45,1.45,0,0,0-.5,1c-.35.34-.51.6-.51.76v.51C91.84,57.83,92.19,57.41,92.69,56.56Zm2,4.31a.82.82,0,0,0,.25-1c-.17-.17-.42.08-.76.76C93.87,61.47,94,61.55,94.72,60.87Zm2.79-36.5a.74.74,0,0,1-.26-.51.69.69,0,0,1-.25-.5,2.09,2.09,0,0,0-.25-.76c-.68-1.18-1.27-1.78-1.78-1.78s-.25.6.76,1.78a1.87,1.87,0,0,0,.64.76,5.13,5.13,0,0,1,.63.5Zm-1,33.21.51-1-.76.51c-.68.68-1,1.1-1,1.27C95.23,59.52,95.65,59.27,96.49,57.58Zm17.24-2.79A23.42,23.42,0,0,0,116,50.1q.26-1.14-1.52,1.9c-.68,1.35-1.18,2-1.52,2s-.51.34-.51,1c0,.51-.17.76-.5.76-.17,0-.6.38-1.27,1.14s-1.44,1.57-2.28,2.41q-2.79,3.3-1,1.78c1.18-1.19,2.2-1.78,3-1.78Q111.7,59.86,113.73,54.79Zm-6.34,16c.51,0,.59.17.26.5a.45.45,0,0,1-.51.51c-.17,0-.25-.16-.25-.51A.44.44,0,0,1,107.39,70.76Zm2-9.89c.51-.51.42-.59-.25-.25a1.49,1.49,0,0,0-.76,1.27.67.67,0,0,0,.76.76q.51,0,0-.51C108.83,62.14,108.92,61.72,109.42,60.87Zm.76-2.79.51-.5c.17,0,.25-.09.25-.26.17.17.09.6-.25,1.27Q109.93,59.1,110.18,58.08Z"/><path class="cls-1" d="M213.1,56.82a137.4,137.4,0,0,1,2.28,14.95,127.84,127.84,0,0,1,.25,14.2q-.25,5.32-.63,10.9c-.26,3.72-.55,7.31-.89,10.77s-.72,6.55-1.14,9.25-.81,4.82-1.14,6.34c-.85,2.53-1.36,4-1.52,4.31s-.43.25-.76-.26c-.34-.67-.51-.76-.51-.25q0,1,.51,1a1.72,1.72,0,0,1,.25,1.64,3.34,3.34,0,0,1-.76,1.65c-.17,0-.25-.51-.25-1.52.16-1,.12-1.22-.13-.63s-1.06,2.83-2.41,6.71a36.21,36.21,0,0,1-2.66,6.21q-1.14,1.9-.38-.63c.17-1.18.08-1.35-.25-.51a1.47,1.47,0,0,0-.51,1v1c.51.51.34.76-.51.76-.51,0-.76-.08-.76-.25a24.94,24.94,0,0,1,.76-2.79c.85-1.86,1.1-2.75.76-2.66s-.93,1.14-1.77,3.17q-2.53,5.33-4.18,9.5t-1.15,3.93c.51-.51.42-.08-.25,1.27-.34.85-.68,1.27-1,1.27-.51-.51-.76-.34-.76.5-.34.51-.26.76.25.76.34-.16.51-.21.51-.12s-.09.12-.26.12c-.34.34-.34.6,0,.76.17.34-.08.43-.76.26-.5-.34-.93.08-1.26,1.26-.34,1-.6,1.44-.76,1.27a1.6,1.6,0,0,0-.76.76,3.45,3.45,0,0,0-.64.76,3.77,3.77,0,0,1-.63.76,34.42,34.42,0,0,1-4.69,5.71c-2,1.94-3.42,3.08-4.44,3.42l-7.35,2.28a38.13,38.13,0,0,0-4.31,1.39c-.5.26-.5.47,0,.64.85.34,1.1.5.76.5s-1.44.09-3.29.26a17.71,17.71,0,0,1-1.9.38,2.46,2.46,0,0,0-1.4.63c-.51.34-.63.6-.38.76a18.89,18.89,0,0,0,3.17,1l4.06,1.26h-3.05c-.84-.16-1.56-.29-2.15-.38s-.89-.21-.89-.38-.34-.25-1-.25a3.65,3.65,0,0,1-2.54-1.27,5.16,5.16,0,0,0-2.78-1,14.14,14.14,0,0,1-2.92-1.27,22.84,22.84,0,0,1-2.91-1.77,3.74,3.74,0,0,0-1.91-.76,20.91,20.91,0,0,1-2.91-.76,20.42,20.42,0,0,1-3.93-1,32.81,32.81,0,0,1-3.68-1.52c-1-.51-1.9-.93-2.66-1.27a2.12,2.12,0,0,0-1.64-.25c-.35.34-.51.25-.51-.25q0-1-.51-.51c-.17.17.08.76.76,1.77q1.77,1.79.51,1.14a14,14,0,0,1-3.3-2.66,28.31,28.31,0,0,1-7.85-11.4q-2.3-6.34-2.79-16.73l-.76-13.69a45.58,45.58,0,0,1,.12-7.73c.26-2.11.64-3,1.14-2.66.51.5.59-.26.26-2.29q-.51-2.28,0-2.28c.33.17.54-.16.63-1s.13-1.94.13-3.3a40.94,40.94,0,0,1,.38-5.07,53.34,53.34,0,0,1,.89-5.32L125.39,90q.77-4.3,1.9-8.62t1.65-4.56c.51-.51,1-1.86,1.52-4a48.44,48.44,0,0,1,2.15-6.47c.93-2.28,1.4-3.17,1.4-2.66a1,1,0,0,0,.76,1c.51.17.76-.08.76-.76a13.91,13.91,0,0,1,.51-2.78c.33-1,.33-1.44,0-1.27-.68.34-.85.67-.51,1,.34.68.25.76-.25.26s-.18-2.2,1-5.07A12.84,12.84,0,0,1,137.56,53a10.52,10.52,0,0,1,1-1.52c.34-.33.42-.5.25-.5-.34,0-.34-.42,0-1.27.51-.67,1-.93,1.53-.76.67.34.92.09.76-.76-.34-.68-.09-1.94.76-3.8a10.32,10.32,0,0,1,1-2,2.63,2.63,0,0,0,.51-1c0-.5.59-1.52,1.77-3l3.3-5.58A80.72,80.72,0,0,1,154,24.5a79.46,79.46,0,0,1,7.1-8.24,39.65,39.65,0,0,1,7.35-5.45,21,21,0,0,1,7.35-2.66A4.15,4.15,0,0,1,178.49,8a11.76,11.76,0,0,1,1.91,1.65c1.18,1.18,2.19,1.77,3,1.77a2.79,2.79,0,0,1,2,.76q0,.51,1.77.51c1.18,0,1.6.17,1.27.51-.17.34.5.93,2,1.77a10.09,10.09,0,0,1,2.4,1.4,20.53,20.53,0,0,1,1.9,1.64l4.06,4.31a33.92,33.92,0,0,1,3.8,4.44,24.57,24.57,0,0,1,2.66,4.94,70.92,70.92,0,0,1,2.29,6.72q1.14,3.93,2.4,9.76c.68,2.53,1.18,4.39,1.52,5.57s.42,1.36.26.51c-.34-2.36-.34-3.25,0-2.66A23.39,23.39,0,0,1,213.1,56.82Zm-91.51,75.53c-.34-.67-.51-.42-.51.76q0,2,.51,1Zm18.25,37-1.27-1.52a28.18,28.18,0,0,1-2-2.91q-1-1.65-3.8-6.72A29.65,29.65,0,0,1,130,151a60.62,60.62,0,0,1-1.77-9c-.51-2.37-.93-3.46-1.27-3.3-.68.17-1-.25-1-1.27,0-1.18-.17-1.43-.51-.76a1.41,1.41,0,0,0-.25,1.78c.33.34.25.5-.26.5s-.76-.41-.76-1.26-.17-1.27-.5-1.27-.26-.93-.26-2.79v-3l-.51,2.79a7.89,7.89,0,0,0,0,4,29.9,29.9,0,0,1,1.4,4.06q.89,3,1.65,6.46c.5,2.29.92,4.31,1.26,6.09s.42,2.75.26,2.91c-.17.34.12,1.31.88,2.92a18.78,18.78,0,0,0,2.41,3.93c1,1.35,1.52,1.77,1.52,1.26,0-.16.42.17,1.27,1A8.8,8.8,0,0,0,136,168.6q1.77,1.28,2.28,1l-1-.76c-.34-.34-.5-.59-.5-.76a.74.74,0,0,1-.26-.51c.34-.34,1-.08,2,.76Zm-7.1-8.62c0,.85.67,1.95,2,3.3,1.52,2.53,1.77,3.47.76,2.79a3.55,3.55,0,0,1-1.14-1.14c-.43-.59-.85-1.23-1.27-1.9s-.8-1.35-1.14-2a4.47,4.47,0,0,1-.51-1.27c0-.34.26-.51.76-.51C132.57,160,132.74,160.24,132.74,160.74Zm3.55,12.17a1.45,1.45,0,0,1,1,.51c.51.51.42.76-.25.76-.17,0-.51-.25-1-.76C136,173.08,136.12,172.91,136.29,172.91Zm.76-117.11c-.85,3.38-.76,4.06.25,2a17.39,17.39,0,0,1,.89-2c.42-.84.8-1.69,1.14-2.53q1.53-3,.76-3.8c-.68-.68-.85,0-.51,2a.67.67,0,0,1-.76.76c-.5,0-.59.17-.25.51.51.51.42.76-.25.76C138.15,53.52,137.72,54.28,137.05,55.8ZM150,39.58l-1.27,1.52c-.51.68-.8,1-.89,1s0-.25.13-.76c.34-1,.25-1.18-.25-.5a42.35,42.35,0,0,0-2.79,5.07,48.14,48.14,0,0,0-2.16,4.31,9.57,9.57,0,0,0-.88,2.53,4.2,4.2,0,0,1-.26,1.27,12.51,12.51,0,0,1-.5,1.27,4,4,0,0,0-.76,2.15,18.16,18.16,0,0,0-.26,2.91c0,.85-.17,1.11-.51.77-.5-.17-.59,0-.25.5.34.68.67.93,1,.76s.5-.67.5-1.52a2.62,2.62,0,0,1,.26-1.52c.16,0,.63-.76,1.39-2.28A46.86,46.86,0,0,0,144.65,52q1-2.79,1.78-5.2a15.32,15.32,0,0,0,.76-2.91c-.17-.67-.09-.93.25-.76.51.51,1,0,1.52-1.52Zm-6.85,133.84q1.53,0,0-.51a.86.86,0,0,1-.76-.38,5.13,5.13,0,0,0-.5-.63c-.34-.68-.76-.85-1.27-.51-.34.34-.17.76.51,1.27A3.39,3.39,0,0,0,143.13,173.42Zm1-115.59c.16-.51.08-.76-.26-.76a.67.67,0,0,0-.76.76.74.74,0,0,0,.26.51C143.55,58.34,143.81,58.17,144.15,57.83Zm.25-15.21c0,.68.42.42,1.27-.76.51-.67.42-.76-.25-.25Zm.76,12.68a3.91,3.91,0,0,0,.51-1.53q0-.5-.51,0A1.49,1.49,0,0,0,144.4,55C144.4,56.06,144.65,56.14,145.16,55.3Zm1.78-4.82a9.89,9.89,0,0,0,1.26-3.55c0-.34-.42.34-1.26,2a9.77,9.77,0,0,0-1.27,3.55C145.67,52.85,146.09,52.17,146.94,50.48Zm.25-11.41c-.17.34-.21.51-.13.51s.21-.17.38-.51.42-.25.76.26.59.42.76-.26c.17-.5-.08-.76-.76-.76S147.19,38.57,147.19,39.07Zm2.28,5.33c.51-.68.42-.76-.25-.26l-1,1C148.2,45.83,148.62,45.58,149.47,44.4ZM154,114.86c.34,0,.34-.33,0-1a4.74,4.74,0,0,0-.63-1.77c-.25-.34-.38-.26-.38.25a4.9,4.9,0,0,0,.38,1.52C153.65,114.53,153.86,114.86,154,114.86Zm0-5.07c.51,1.36.76,1.27.76-.25,0-.84-.25-1.27-.76-1.27C153.69,108.27,153.69,108.78,154,109.79Zm.51-5.32a.22.22,0,0,0-.25.25v.76c0,.51.16.77.5.77s.42-.26.26-.77C155.05,104.81,154.88,104.47,154.54,104.47Zm31.69-.25q.5-4.81.63-11.28T187,80q0-6.47-.26-11.91a66.92,66.92,0,0,0-.76-8.24c-.34-1.69-.59-3.3-.76-4.82s-.25-2.53-.25-3a8.28,8.28,0,0,0-.76-2.28,2.58,2.58,0,0,1-.64-1.52c-.08-.68,0-.85.38-.51.51.34.59-.25.26-1.77s-.76-2.45-1.27-2.79c-.68-.34-1-.76-1-1.27a1.2,1.2,0,0,0-.13-.51,1,1,0,0,1-.13-.5l-.5-1.78q0-1-2.54,3.3-2.28,4.31-1.52,4.05c.67,0,1-.42,1-1.26a4.56,4.56,0,0,1,1.53-2.29c.84-.84,1.09-1.26.76-1.26-.34-.34-.26-.51.25-.51s.72.17.63.51a17.19,17.19,0,0,1-1.9,3q-1.77,3-2.79,2.79c-.84-.34-.93-.26-.25.25.34.34.38.89.13,1.65A36.73,36.73,0,0,1,174.06,54q-1.27,2.53-2.79,5.7A50.24,50.24,0,0,0,169,65.18l-3.42,9.63c-.43,1.19-.81,1.61-1.14,1.27v.51a8.48,8.48,0,0,1-.26,3.29c-.34,1.86-.84,4-1.52,6.34q-2,7.61-3.29,13.56t-2.28,12c-.35,1.86-.64,3.76-.89,5.71a25.49,25.49,0,0,1-.89,4.43,64.84,64.84,0,0,0-.63,8.75q-.13,5.7.12,11.91t.76,11.79a45.17,45.17,0,0,0,1.27,8.11l.76,2.28,2.28-1,4.31-2.54q4.05-2.79,8.62-10.52a86.36,86.36,0,0,0,7.35-15.84,55.15,55.15,0,0,0,1.9-6.72q.89-3.93,1.78-8.11c.59-2.79,1.09-5.58,1.52-8.37S186.06,106.42,186.23,104.22Zm-30.17-7.61a29.94,29.94,0,0,0-.76,3.3,15.06,15.06,0,0,0-.25,2c0,.5.08.55.25.12s.38-1,.63-1.9.51-1.77.76-2.79a11.24,11.24,0,0,0,.39-2.78C157.41,92.39,157.08,93.06,156.06,96.61ZM169,53.77a1.47,1.47,0,0,0-.51,1c0,.34.08.47.26.38s.33-.38.5-.89C169.58,53.77,169.5,53.61,169,53.77Zm1.27,127.76c.5,0,.76.17.76.51s-.26.5-.76.5a.44.44,0,0,1-.51-.5A.45.45,0,0,1,170.26,181.53Zm2.78-.76a5.75,5.75,0,0,1,1.91-.51c.42,0,.29.17-.38.51-.68.68-1.27.85-1.78.51C172.45,181.28,172.54,181.11,173,180.77Zm1.53,1a9.94,9.94,0,0,1,2.78-1.39c1.52-.59,2.29-.8,2.29-.63,0,.34-.64.8-1.91,1.39a7.75,7.75,0,0,1-2.66.89C174.73,182,174.57,182,174.57,181.78Zm3.29-152.09q-.51,1,.51,1c.33,0,.42-.26.25-.76-.17-.17,0-.42.51-.76q.76-.26,0-1c-.51-.5-.76-.59-.76-.25A4,4,0,0,1,177.86,29.69Zm4.82,15.47a1.85,1.85,0,0,1,.12-.76c.09-.17.13-.09.13.25.34.51.34.93,0,1.27C182.76,46.09,182.68,45.83,182.68,45.16ZM190,14c-.68-.34-.76-.51-.26-.51q1,0,1,.51c.33.34.46.5.38.5A5.54,5.54,0,0,1,190,14Zm1.52,78.07a2.67,2.67,0,0,0,0-2.28c0-.34,0-.38-.13-.13a5,5,0,0,0-.12,1.4,3.76,3.76,0,0,0,.12,1.14C191.51,92.43,191.55,92.39,191.55,92.05Zm.76,2.79c-.17-.34-.25,0-.25,1,0,1.19.08,1.52.25,1ZM202.2,30c-.51-1.35-.89-2-1.15-2s-.21.68.13,2c.67,1.52,1.1,2.28,1.27,2.28C202.62,32.06,202.53,31.3,202.2,30Zm.5,26.87c.17,0,.09-.85-.25-2.54-.51-1.18-.76-1.6-.76-1.27a11.21,11.21,0,0,0,.38,2.79Q202.45,57.33,202.7,56.82Zm-.5-17.75c.16,1.36.42,1.78.76,1.27.5-.51.42-1.18-.26-2-.34-1-.59-1.43-.76-1.27S201.85,37.89,202.2,39.07Zm1.26,4.31a1,1,0,0,0,.76-1c0-.34-.25-.42-.76-.26-.34,0-.5.34-.5,1C203,43.3,203.12,43.38,203.46,43.38ZM206,49.47a1,1,0,0,0-.51-1c-.51-.51-.76-.59-.76-.25C204.73,49.55,205.15,50,206,49.47Zm.5,22.81c-.34-.34-.5-.08-.5.76,0,1.18.16,1.44.5.76Zm3.55,52c0-.84-.08-1.26-.25-1.26-.34,0-.51.5-.51,1.52C209.29,126.36,209.55,126.27,210.05,124.24Zm1.27-73.51c-.17.17-.25-.08-.25-.76,0-.5.08-.59.25-.25A.63.63,0,0,1,211.32,50.73Z"/><path class="cls-1" d="M333,16c.16,0,.25.84.25,2.53a4.42,4.42,0,0,1-.25,1.9c-.17.25-.68.3-1.52.13-1.36,0-1.7.17-1,.5,0,.35-.34.68-1,1-.68.51-.85.93-.51,1.27.17.17,0,.38-.38.63a6.06,6.06,0,0,1-1.9.63,11.92,11.92,0,0,0-3,1.52,4.55,4.55,0,0,1-1.4.39,3.79,3.79,0,0,0-1.64.63,11.67,11.67,0,0,0-3.3.63c-1.35.43-2.62.81-3.8,1.14q-5.33,1.28-7.35,1.52c-1.36.17-2,.09-2-.25.17-.17.51,0,1,.38s.09.63-1.26.63c-1.19,0-2.25,0-3.17-.12s-1.4-.21-1.4-.38q-.51-.51,1-.51a11.58,11.58,0,0,0,3.17-.25,1.59,1.59,0,0,0,.88-.76c.17-.34-.08-.64-.76-.89a2.45,2.45,0,0,0-2,.13q-3,1.77-4.56,1.26a4.2,4.2,0,0,0-1.27.26,6.54,6.54,0,0,0-1.52.76,9.55,9.55,0,0,1-4.31,1q-1.77.26-5.83.89T278,33.75a7.38,7.38,0,0,0-1.52.25,8.37,8.37,0,0,1-2,.26,5.62,5.62,0,0,0-1.65.88,3.57,3.57,0,0,0-.63,1.65,4.46,4.46,0,0,0-.25,1.4v.88a3.4,3.4,0,0,1-.76,2,14.81,14.81,0,0,0-1.27,3,36.77,36.77,0,0,0-1.27,5.07c-.51,2-.93,3.59-1.27,4.69s-.59,1.9-.76,2.41-.34.76-.5.76h-.51c-.51-.51-.59-.25-.25.76,0,.34-.09,1.23-.26,2.66a43.92,43.92,0,0,1-.76,4.44c-.34,1.52-.67,2.91-1,4.18s-.6,1.9-.76,1.9-.43.85-.76,2.54c-.51,3.89-1,7-1.52,9.5s-.93,3.59-1.27,3.42c-.68,0-.76-.25-.25-.76a8,8,0,0,0,.5-3.29,11.29,11.29,0,0,0,.26-2.16,1.72,1.72,0,0,1,.25-1.14c.34-.33.34-.84,0-1.52-.51-.51-.85.09-1,1.78-.17,1-.43,2.28-.76,3.8s-.68,3-1,4.31-.68,2.58-1,3.67a6.8,6.8,0,0,1-.76,1.9c-.34.51-.68.76-1,.76s-.5.35-.5,1c-.17.51-.09.59.25.25.51-.5.76-.59.76-.25.34.51,1.43.42,3.3-.25q1.52-.25,5.32-1c2.53-.51,5.28-1,8.24-1.52s5.78-1,8.49-1.39,4.73-.72,6.08-.89a33.12,33.12,0,0,1,5.07-.13c1.86.09,3.63.22,5.32.38a38.36,38.36,0,0,1,4.31.64,5.18,5.18,0,0,1,2.29.88c.84.68.92,1.19.25,1.52s-.42.76.76,1.27,1.69,1.1,1.52,1.78c-.34.5-.25,1.18.25,2a.81.81,0,0,1-.25,1.27q-1,0,.51.51c1,.34.92.59-.26.76-.84.34-1.26.68-1.26,1,0,.51.16.6.5.26.51-.51.76-.42.76.25s-.76.76-2.28.25c-1.35-.16-2,0-2,.51,0,.34-.34.51-1,.51-.51-.34-1-.21-1.52.38a1.26,1.26,0,0,0-.25,1.64c.33.35.08.51-.76.51a2.52,2.52,0,0,1-1.14.26,2.63,2.63,0,0,0-1.4.5c-.34,0,0,.17,1,.51.68.34,1,.51.89.51h-2.15a44.45,44.45,0,0,0-7.1,1c-1,.17-1.44,0-1.27-.51.17-.16.21-.21.13-.12a2.56,2.56,0,0,0-.38.63,3.76,3.76,0,0,1-2.79,1c-1.35,0-1.86.26-1.52.76,0,.18-.42.18-1.27,0-.67-.16-.93,0-.76.51.17.34-.09.34-.76,0-.51-.51-.68-.59-.51-.25.51.51-.25,1-2.28,1.52-1.35.68-1.69.93-1,.76l3.8-.76c1.35-.34,1.86-.34,1.52,0,0,.17-.59.42-1.77.76s-2.54.68-4.06,1-3,.64-4.31.89a18.65,18.65,0,0,1-2.79.38c-.84,0-1,.25-.5.76.16.17.8.13,1.9-.13l3.93-.88c1.52-.34,2.83-.59,3.93-.76a18.48,18.48,0,0,1,2.15-.26c.51.34-.42.85-2.79,1.52a74,74,0,0,1-8.11,1.78l-4.05.89a5.8,5.8,0,0,0-2,.63,2.76,2.76,0,0,0-.76.51.73.73,0,0,1-.51.25c-.34,0-.47-.08-.38-.25a1.32,1.32,0,0,1,.63-.51c.34-.34-.08-.42-1.26-.25a21.59,21.59,0,0,1-3.3.5c-.51,0-.76.17-.76.51.34.34.29.51-.13.51a1.58,1.58,0,0,1-1.14-.51c-.34-.34-.59-.51-.76-.51a3.82,3.82,0,0,1-1.52-.5c-.67-.34-1.18-.34-1.52,0q-.26,0,0,.12a1.67,1.67,0,0,0,.76.13c.67,0,.76.25.26.76a6.32,6.32,0,0,1-2.79.51,3.39,3.39,0,0,0-1.78.25q-.26.25,0,2.28c.51,2.37.42,2.88-.25,1.52-.34-.33-.6-.46-.76-.38s-.17.81,0,2.16c.16,2,0,2.87-.51,2.53-.51-.5-.59.09-.25,1.78s.33,2.36,0,2-.68-2.44-1-6.33v-1.27l-.48,1.27c-.33.84-.49.84-.49,0-.16-1.35-.44-1.9-.85-1.65s-.77,1.14-1.09,2.66a31,31,0,0,0-.49,4.44c0,.93.24.63.73-.89.48-1.86.81-2.7,1-2.53a11.49,11.49,0,0,1,.25,3.54c0,2.71-.17,4.06-.49,4.06-.49,0-.25.34.73,1a2.59,2.59,0,0,1,1.09,1.65,15.5,15.5,0,0,1-.36,3.68c-.17,1.35-.29,2.58-.37,3.67s-.12,1.82-.12,2.16c0,.5,0,1.18-.12,2s-.2,1.7-.36,2.54a36.08,36.08,0,0,0-.37,4.06c-.08,1.69-.12,3.33-.12,4.94s0,3,.12,4.18a4.66,4.66,0,0,0,.37,2c.32.34.16.68-.49,1s-1,.68-1,1,.24.42.73.25c.32-.17.49-.21.49-.13s-.09.13-.25.13q-.5.51,0,1.77a4.27,4.27,0,0,1-.49,3.3c-.65,1.35-1.29,1.86-1.94,1.52a1.56,1.56,0,0,1-.73-.13,1.07,1.07,0,0,0-.48-.12c-.17,0-.25-.42-.25-1.27s-.17-1.27-.5-1.27c-.17,0-.3.47-.38,1.4s-.22,2.07-.38,3.42c0,1.35-.05,2.53-.13,3.55s-.3,1.61-.63,1.77c-.34.68-.51.17-.51-1.52v-4.56c0-2.37-.17-2.7-.51-1a18.87,18.87,0,0,0-.5,4.57c-.17,2.7-1,3.72-2.54,3-.85-.34-1.35-.09-1.52.76-.34.85-.59,1-.76.51a2,2,0,0,0-1.78-.76c-1,0-1.52-.34-1.52-1,0-.51-.5-.67-1.52-.51a4.37,4.37,0,0,0-1,.13,3.29,3.29,0,0,1-.76.13c-.17,0-.43.59-.76,1.77-.34,1.69-1.1,2.54-2.28,2.54q-.51,0-.51-2.79a12.2,12.2,0,0,0-.13-2c-.08-.51-.21-.67-.38-.51-.5.34-.8-1.09-.88-4.31s-.05-6.84.12-10.9.42-7.94.76-11.66.76-5.83,1.27-6.33a.64.64,0,0,0,0-1,4.79,4.79,0,0,1,.25-1.52,6.25,6.25,0,0,0,.38-2c.09-1,.13-2.2.13-3.55a38.73,38.73,0,0,1,.38-4.69q.38-2.91.89-5.45l2.28-14.2c.34-2.36.63-4.43.89-6.21a9.62,9.62,0,0,1,.63-2.91,11.27,11.27,0,0,0,.76-3c.34-1.85.67-3.92,1-6.21s.68-4.43,1-6.46a33,33,0,0,0,.51-3.8c0-.34.25-.42.76-.26.33.17.42-.08.25-.76-.34-.67-.17-2.11.51-4.3a21.24,21.24,0,0,0,.76-3.05,16.92,16.92,0,0,0,.25-2c0-1,.25-1.53.76-1.53.17,0,.17-.25,0-.76q-.51-1.26.51-1.77a6.07,6.07,0,0,0,1.27-2.28,8.59,8.59,0,0,0,.5-2.54q.51-1.26,1-2.91a3.64,3.64,0,0,0,.25-2.16,4.46,4.46,0,0,1,.51-1.26c.33-.68.42-1,.25-1-.17-.16-.17-.8,0-1.9a23,23,0,0,1,.76-3.29c.33-1.1.62-2.12.86-3s.45-1.3.62-1.14c.65.34.73.26.24-.25a9.28,9.28,0,0,1,.25-3.42,45.72,45.72,0,0,1,1-4.69,3.89,3.89,0,0,0,.49-1.52,3,3,0,0,0,.24-1.27.85.85,0,0,0,.25-.63.86.86,0,0,1,.25-.64c.16-.84.36-1.81.61-2.91a4.92,4.92,0,0,1,.85-2.16c.5-.5.57-.76.25-.76s-.08-.33.25-1a13.59,13.59,0,0,0,.85-3.55c.25-1.69.45-3.46.62-5.32a6.74,6.74,0,0,1,1.52-4.06c.84-.84,1-1.1.5-.76q-2.79,1.77,1.78-2.79c1.86-1.86,2.79-3,2.79-3.29a3.11,3.11,0,0,1,.63-1.14A14.88,14.88,0,0,1,255,10.3c.59-.59,1.14-1.1,1.65-1.52a2.38,2.38,0,0,1,1-.63,5.14,5.14,0,0,1,1.9.76,8.65,8.65,0,0,1,1.9,1.27c.17.17.68.21,1.52.12a23,23,0,0,0,3.3-.63,32.13,32.13,0,0,1,4.94-.76q2.91-.25,4.95-.51c1.35,0,3.08-.08,5.19-.25s3.84-.34,5.2-.51c5.41-.67,9.16-1,11.28-1.14a16.49,16.49,0,0,1,4.94.38c.17,0,0,0-.51.13a10.44,10.44,0,0,1-1.64.12A4.65,4.65,0,0,1,299.4,7c-.25-.09,0-.13.63-.13a11.14,11.14,0,0,1,3.55-.38c1,.09,1.69.13,2,.13,0,.17.55.25,1.65.25a29.62,29.62,0,0,0,3.67-.25,41.07,41.07,0,0,1,6.47,0q3.42.25,6.46.76a21.81,21.81,0,0,1,5.07,1.39c1.35.59,2,1.14,2,1.65a5.29,5.29,0,0,0,.63,3.17A9.93,9.93,0,0,0,333,16ZM237.17,167.08a.8.8,0,0,0,.51-.76c0-.34-.26-.51-.76-.51-.17,0-.26.17-.26.51q.51.51,0,.51c-.5,0-.76.68-.76,2,0,1.18.26,1.77.76,1.77s.59-.51.26-1.52A1.73,1.73,0,0,1,237.17,167.08Zm1.77,3.8a8.6,8.6,0,0,0,.51-2.15,24.19,24.19,0,0,0,.25-3.68,27.15,27.15,0,0,0,.26-3.16c0-.77-.09-1.06-.26-.89-.34.34-.5,1.35-.5,3a24,24,0,0,0-.38,2.66c-.09.93-.13,1.82-.13,2.66C238.52,171.05,238.6,171.56,238.94,170.88Zm2.54.26c0-.68-.25-1-.76-1s-.6.26-.26.76a2,2,0,0,1-.25,1.27,1.51,1.51,0,0,0-.25,1.52c.33.51.59.34.76-.51,0-1.18.25-1.52.76-1C241.82,172.49,241.82,172.15,241.48,171.14Zm-1.27-33c0,.68.08,1,.25,1,.34-.34.34-.76,0-1.27,0-.34,0-.46-.12-.38A1,1,0,0,0,240.21,138.18Zm1.27,17.49c0-1.52-.09-2.23-.25-2.15a6.51,6.51,0,0,0-.77,2.41c0,1.52.09,2.28.26,2.28C241.23,158.21,241.48,157.37,241.48,155.67Zm-.25-22c-.35-.67-.51-.59-.51.26,0,.67.16,1,.51,1A.93.93,0,0,0,241.23,133.62Zm.76,32.95c0,.85.16,1.11.5.76v-1C242.15,165.65,242,165.73,242,166.57Zm1.52-43.34c.67,0,1-.17,1-.51,0-.51-.34-.59-1-.25l-1,.51C242.49,123.15,242.83,123.23,243.51,123.23Zm-.26,16.22a1.65,1.65,0,0,0,.13.76c.08.17.13.17.13,0,.16,0,.25-.33.25-1C243.42,138.53,243.25,138.61,243.25,139.45Zm2.28-4.31c0,.68-.25,1-.76,1a.44.44,0,0,1-.5-.51,1.43,1.43,0,0,1,.5-1C245.28,134.47,245.53,134.64,245.53,135.14Zm-.25,39.29c.51,0,.59.76.25,2.28,0,1.69-.17,2.54-.5,2.54a1,1,0,0,1-.26-.76v-1.78Q244.77,174.43,245.28,174.43Zm.51-47.15c.16,0,.25-.12.25-.38a.89.89,0,0,0-.25-.63c0-.34,0-.46-.13-.38a1,1,0,0,0-.13.63C245.53,127.2,245.62,127.45,245.79,127.28Zm-.26,43.35a4.76,4.76,0,0,1,.13-1.52c.08-.17.13-.08.13.25a4,4,0,0,1,0,2.79c0,.34,0,.38-.13.13A6.28,6.28,0,0,1,245.53,170.63Zm1.27-13.94a2.57,2.57,0,0,1,.13-1c.08-.16.13-.08.13.26a2.18,2.18,0,0,1,0,2C246.89,158.13,246.8,157.7,246.8,156.69Zm2.79-66.92c-.34.51-.59.76-.76.76s-.25.51-.25,1.52.08,1.39.25,1.14a10.52,10.52,0,0,0,.76-2.15Zm5.07-3.3a2.33,2.33,0,0,0,0-1.52c0-.33,0-.38-.13-.12a3.32,3.32,0,0,0,0,1.77C254.62,86.85,254.66,86.81,254.66,86.47Zm10.14,8.62c-.51.17-1.36.43-2.54.76s-2.36.72-3.54,1.14-2.2.81-3.05,1.14-1.26.6-1.26.76c0,.34.33.34,1,0l7.35-2c4.22-1,6.17-1.69,5.83-2a1.39,1.39,0,0,0-1.77-.25A4.5,4.5,0,0,1,264.8,95.09Zm-9.38-5.83c-.34-.67-.51-.59-.51.26,0,1,.17,1.35.51,1Zm.76-5.32a.73.73,0,0,0,.51-.25c0-.17-.17-.42-.51-.76-.51-.51-.76-.42-.76.25A.67.67,0,0,0,256.18,83.94Zm1.52,5.32c.34-1.69.68-2.36,1-2q-.25,2-.51,3.3a20.66,20.66,0,0,1-.63,2.41,4.27,4.27,0,0,1-.64,1.39c-.34,0-.34-.42,0-1.27Zm.76-12.93c.34-1,.17-1-.5,0a7.73,7.73,0,0,0-.51,2.29v1.26l.51-1.26A8.33,8.33,0,0,0,258.46,76.33Zm.51-1.52c.34-.67.34-1.18,0-1.52,0-.33,0-.38-.13-.12a3.32,3.32,0,0,0,0,1.77C258.93,75.19,259,75.15,259,74.81Zm1.27,1.52a.92.92,0,0,0,0-1.26c-.17-.34-.26-.17-.26.5S260.07,76.5,260.24,76.33Zm.5-6.84a2,2,0,0,0,.26-1.27q-.51-.5-.51.51a1.67,1.67,0,0,0,.13.76Q260.74,69.75,260.74,69.49Zm.26-2.28c.5,0,.76-.34.76-1l-.26-.5v-.26l-.76.76C260.74,66.87,260.83,67.21,261,67.21Zm1.52-5.32c.33-1.36.25-2-.26-1.78a3.45,3.45,0,0,0-.5,2.28Q261.76,65.69,262.52,61.89Zm3.8,55.26c.84,0,1.1-.17.76-.51a1.07,1.07,0,0,1-.51-.13.92.92,0,0,0-.76.13Q265.3,116.9,266.32,117.15Zm2.54-72.25c.67-1.52.84-2.28.5-2.28-.17,0-.55.68-1.14,2a8.8,8.8,0,0,0-.89,2.79C267.33,48.11,267.84,47.27,268.86,44.9Zm2,48.92c-.67.35-.59.51.26.51a1.7,1.7,0,0,0,.76-.13q.24-.12,0-.12C271.9,93.91,271.56,93.82,270.88,93.82Zm1.78-52.21q.75-.51,1.26,0c0,.17-.25.25-.76.25C272.49,41.86,272.32,41.78,272.66,41.61Zm1.77-2.54c.34.34.09.51-.76.51q-1,0-.51-.51c.34-.16.59-.21.76-.12A1.19,1.19,0,0,0,274.43,39.07Zm1.27-.5c.51-.34.93-.34,1.27,0,.16.17-.09.25-.76.25S275.36,38.74,275.7,38.57Zm3-.76a2,2,0,0,1,1.27.25c.16,0,.16,0,0,.13a1.88,1.88,0,0,1-.76.12C278.23,38.31,278.06,38.15,278.74,37.81Zm2.54,75.79q.75-.51,1.26,0c0,.34-.34.5-1,.5C281,113.94,280.94,113.77,281.28,113.6Zm3-.51q.75-.51,1.26,0c.17.17-.08.25-.76.25a1.85,1.85,0,0,1-.76-.12C283.89,113.13,284,113.09,284.32,113.09Zm6.08-6.34c-.68,0-1,.17-1,.51a.44.44,0,0,0,.5.51,1.47,1.47,0,0,0,1-.51C291.25,106.92,291.07,106.75,290.4,106.75Zm5.83,4.31c.67.34.42.51-.76.51-.85,0-1.1-.17-.76-.51Zm4.31-4.31c.67.34.42.51-.76.51-.85,0-1.1-.17-.76-.51Zm-.51-2.53c.85,0,1.27.17,1.27.5.34.35.42.51.25.51a6.52,6.52,0,0,1-1.52-.51c-.34-.33-.55-.5-.63-.5Zm6.09-74.53c.33,0,.5-.33.5-1s-.17-.84-.5-.51c-.51.34-.76.68-.76,1S305.61,29.69,306.12,29.69Z"/><path class="cls-1" d="M430.07,8.88a4.3,4.3,0,0,1,.76,2.21,3.34,3.34,0,0,0-.25,1.48c0,.33-.43.33-1.27,0a4.9,4.9,0,0,0-3,0,8.39,8.39,0,0,0-1.4.62c-.08.08,0,.29.38.61a2.12,2.12,0,0,0,2,0q2-2,2,.26c0,1.54-1,2.39-3,2.56l-1.52.51h1.52c1,0,1.77.86,2.28,2.56.34,1.71.34,2.73,0,3.07-.34.17-.34.77,0,1.79.67.85.59,1.28-.25,1.28a2.15,2.15,0,0,0-1,.26.5.5,0,0,0-.25.76c.84,1.71.72,3-.38,3.84a10.13,10.13,0,0,1-5.07,1.66,73.11,73.11,0,0,1-8.11.38H404c-1.35-.16-3.17-.29-5.45-.37a49.75,49.75,0,0,0-6.21.12c-2.87,0-4.73.05-5.57.13s-1.27.3-1.27.63a4.44,4.44,0,0,0,.12,1,1.15,1.15,0,0,0,.64.76c.16.34.33.67.51,1a9,9,0,0,1,.5,2,21,21,0,0,1,.13,4.18q-.14,2.67-.63,7.48c-.18,1-.35,2-.51,2.91a7.92,7.92,0,0,1-.51,1.9,36,36,0,0,0-1.27,5.58c-.5,2.88-.93,5.58-1.26,8.11q-.51,5.58-.89,9c-.25,2.28-.55,3.59-.89,3.93a6.86,6.86,0,0,0-.63,2.28c-.26,1.36-.55,2.88-.89,4.56-.17,1.87-.42,4-.76,6.47s-.68,4.61-1,6.46-.6,3.42-.76,4.69-.17,2,0,2.16.08.84-.26,2c-.5,1-.5,1.78,0,2.29.68.67.68,1,0,1-.5.51-.59.85-.25,1a2.79,2.79,0,0,1,.13,1.52c-.09.68-.22,1.4-.38,2.16a8.1,8.1,0,0,1-.64,1.9c-.25.51-.47.68-.63.51-.34-1-.51-.76-.51.76a41.07,41.07,0,0,1-.51,5.07,70.42,70.42,0,0,1-1.39,7.09q-.89,3.55-1.65,6.34c-.5,1.86-.84,2.79-1,2.79s-.43.51-.76,1.52a27.54,27.54,0,0,1-.64,3.8q-.63,3-1.14,6.59a62.68,62.68,0,0,0-1.52,6.59c-.34,2-.5,3.22-.5,3.55,0,.85-.26.93-.76.26-.68-1-.94-.85-.76.5v1.27a1.43,1.43,0,0,1-.26,1c-.68.68-.59,1.27.26,1.78a4,4,0,0,1,.88,2.53c.09,1.19-.12,2-.63,2.29-.51.17-.34.67.51,1.52.84.5,1.05.93.63,1.26a14.25,14.25,0,0,1-4.18,1.27l-3.17.89a4.29,4.29,0,0,0-1.9.89,1,1,0,0,1-1.27.5c-.51-.16-.59-.59-.25-1.26.16-.34,0-.51-.51-.51a6,6,0,0,0-1.9.38c-.76.25-1.61.55-2.54.89a5.93,5.93,0,0,0-2.15,1.26q-2.79,2.79-4.06,1.52c-.17-.16-.08-.67.26-1.52l-1,1a14.3,14.3,0,0,1-2.28,2c-.34.16-.68-.17-1-1a11.32,11.32,0,0,0-.13-1.39,12.7,12.7,0,0,1-.13-1.9c.17-1.53,0-2.11-.5-1.78q-1,1-.51-.51c.34-.84.59-1.26.76-1.26.34,0,.51-.26.51-.76s-.09-1.61-.26-3.3c-.34-.34-.59-.25-.76.25-.34.51-.5.35-.5-.5,0-1.18-.3-1.65-.89-1.4s-.89,1-.89,2.16c-.17,1.86-.25,3-.25,3.42s-.17.55-.51.38a1.17,1.17,0,0,1-.76-1.27.67.67,0,0,0-.76-.76c-.34.17-.51-.08-.51-.76s.17-2.7.51-6.08q.25-2,.51-3.42c.16-.93.42-1.31.76-1.14.33,0,.5-.09.5-.26s-.25-.5-.76-1c-.5-.17-.59-.42-.25-.76.34-.17.55-.59.63-1.27s.21-1.43.38-2.28l1-9.89a4.33,4.33,0,0,0,.63-2.53c.09-1.35.21-2.79.38-4.31q.26-2.53.89-7.23c.42-3.12.89-6.25,1.39-9.37s1-6,1.52-8.5l1-5.07q.76-2.77,1.39-6.08a59.22,59.22,0,0,0,.89-6.59,57.59,57.59,0,0,1,.89-5.7q.63-3.17,1.26-6a43.7,43.7,0,0,1,1.15-4.31c.33-1,.59-1.27.76-.76.33,1.18.76-1.1,1.26-6.84q.76-3.81,1-5.71a25.92,25.92,0,0,1,.5-2.91c.17-.68.3-1.14.38-1.4a8.05,8.05,0,0,1,.38-.88,2.36,2.36,0,0,0,.26-1.78c-.17-.16-.09-.42.25-.76.34,0,.55-.42.64-1.27s.21-1.77.38-2.78a14.9,14.9,0,0,1,.38-3.43,12.77,12.77,0,0,0,.38-2.15l1.26-6.08,1.52-7.86a7.87,7.87,0,0,0,.13-3.68,16.73,16.73,0,0,1-.38-1.9h-1.77a16.47,16.47,0,0,1-1.9-.13,23.28,23.28,0,0,0-2.41-.12c-1.52,0-3,0-4.57-.13a13.77,13.77,0,0,1-3-.38c-.34,0-.08,0,.76-.13s1.78-.12,2.79-.12,2,0,2.92.12a6.66,6.66,0,0,1,1.14.13q-1,1-1,0c0-.34-.38-.59-1.14-.76a1.71,1.71,0,0,0-1.64.25c-.18.17-.51.17-1,0a3.24,3.24,0,0,0-2.15-.5h-3.93a20.71,20.71,0,0,0-3.93.25,3.34,3.34,0,0,0-1.65.76c-.34.85-1,1.1-2,.76-.34,0-1.1,0-2.28-.13s-2.45-.21-3.8-.38a31.74,31.74,0,0,1-3.3-.12,2,2,0,0,1-1.52-1,5.83,5.83,0,0,1-.5-2.79v-5.7Q321.08,12,322.85,13c.67.34.67.17,0-.5-.51-.51-.34-1.35.5-2.54q2.28-3,7.86-3c1.69,0,2.54-.17,2.54-.51a7.43,7.43,0,0,1,2.79-.25h9.25c.25,0,.38,0,.38-.15a.9.9,0,0,1,.25-.46,10,10,0,0,1,3-.91A52.53,52.53,0,0,1,355,4.09q4.31-.24,12.42-.76c1.18-.17,2.24-.29,3.17-.38a3.38,3.38,0,0,0,1.65-.38c.16-.17,1.18-.25,3-.25s3.88.08,6.08.25,4.14.34,5.83.51,2.45.34,2.28.5a3.52,3.52,0,0,0,1.52.26,15.44,15.44,0,0,1,1.78.12,17.33,17.33,0,0,0,2.28.13,31.55,31.55,0,0,1,4.18.26,10.44,10.44,0,0,1,2.41.5c.67.34,1,.43,1,.26h.51a3.69,3.69,0,0,1,1.52.56c1.69.56,1.9,1,.64,1.27a72.45,72.45,0,0,1-9.26.7q-3.8,0-7.22.13a34,34,0,0,0-4.69.38q-3.56.51,3.3.76a44.55,44.55,0,0,0,4.94.25,22,22,0,0,0,3.93-.25c.84,0,2.49-.09,4.94-.26s5.11-.29,8-.38L417.9,8c2.87-.08,5.24-.13,7.1-.13a17.37,17.37,0,0,1,3.68.25A3.23,3.23,0,0,1,430.07,8.88ZM330.71,30.71a19.86,19.86,0,0,0,2.53-.13c.67-.08.84-.21.51-.38a5.26,5.26,0,0,0-2-.51c-1.19-.16-2.41-.29-3.68-.38s-2.4-.12-3.42-.12-1.52.08-1.52.25Q323.1,30.71,330.71,30.71ZM325.38,8.65q-1.77.76-1.77,1.53t1.77,0l2.28-1.27c.68-.34.51-.34-.5,0-.68.17-.93.08-.76-.26Q327.15,7.9,325.38,8.65Zm-1.52,7.86c0,.85.34,1,1,.51a3.71,3.71,0,0,0,1.78-1.27c0-.34-.42-.51-1.27-.51C324.37,15.24,323.86,15.67,323.86,16.51Zm1.27,1.27c-1,.34-1.36.76-1,1.27.51.67,1,.42,1.53-.76C326.31,17.27,326.14,17.11,325.13,17.78Zm3,8.29c.51-.5.51-.67,0-.5-.51.34-.76.17-.76-.51s-.25-.93-.76-.76h-.76a2.26,2.26,0,0,1-1-.25c-.5-.34-.76,0-.76,1q1,2.79,1.78.76c.17-.51.51-.51,1,0A.81.81,0,0,0,328.17,26.07Zm9.63,142.28c0-.34-.08-.42-.25-.25a1,1,0,0,0-.25.76c0,.84.16,1.1.5.76Zm.26-2.54q-.51-.5-.51.51c0,.85.17,1.1.51.76Zm2.28,24.59c.33-.5.5-.72.5-.63a8.24,8.24,0,0,1-.76,1.39,3.76,3.76,0,0,1-1.26,1.78c-.51.33-.76.16-.76-.51,0-.51.16-.59.5-.25.51.33.76.25.76-.26A2.06,2.06,0,0,1,340.34,190.4Zm-1-27.63v-1a1.49,1.49,0,0,0-.5-1q-.51-1-.51,0a6.54,6.54,0,0,0,.25,2C338.9,163.45,339.15,163.45,339.32,162.77Zm1.27-15.21c.51-1.52.51-1.85,0-1a5.15,5.15,0,0,0-1.27,3.8,22.35,22.35,0,0,0-.5,4.31c-.17.85-.26,1.31-.26,1.4s.17,0,.51-.39.42-.16.25,1q-1,2.28,0,1.77.51-.5,1-4.56c0-1.18,0-2.36.12-3.55S340.59,148.24,340.59,147.56Zm1.78-16c.16,0,.25-.16.25-.5a.67.67,0,0,0-.76-.76c-.17,0-.26.25-.26.76C341.94,131.43,342.2,131.59,342.37,131.59Zm.25-2.78c.17.34.51-.17,1-1.53a4,4,0,0,0,.26-3c-.17-.33-.26-.16-.26.51-.17.51-.34,1-.5,1.39s-.34.81-.51,1.14A1.28,1.28,0,0,0,342.62,128.81Zm0,48.16c.34-.34.34-.76,0-1.27-.17-.34-.25-.17-.25.51S342.45,177.14,342.62,177Zm1.27-59.82c-.17-.17-.26.17-.26,1,0,.68.09.93.26.76A1.7,1.7,0,0,0,343.89,117.15Zm2-10.9c.34-1.69.34-2.29,0-1.78-.67.68-1,2.12-1,4.31-.34,1.86-.34,2.5,0,1.9A16.16,16.16,0,0,0,345.91,106.25Zm2-7.36a13.91,13.91,0,0,0,.51-2.78,5.83,5.83,0,0,0-.51-2l-.5-1.52-.51,2.28v4.31c0,1-.09,1.52-.26,1.52s-.42.51-.76,1.52c0,1.18.26,1.39.76.63A11,11,0,0,0,347.94,98.89Zm2.28,76.81c0-.34-.34-.51-1-.51-1,0-1.61.26-1.77.76-.18.34.16.47,1,.38A2.87,2.87,0,0,0,350.22,175.7ZM347.94,90c0,.85.17,1.1.51.76V89.52C348.11,88.84,347.94,89,347.94,90Zm1,.51a9.5,9.5,0,0,0-.64,2.53c-.08.85.3,1.11,1.14.76.51,0,.76-.59.76-1.77a21.27,21.27,0,0,1,.51-3.8,5.38,5.38,0,0,0,.38-2c-.09-.17-.38.09-.89.76a2.22,2.22,0,0,0-.63,1,.75.75,0,0,0,.13.77A3.17,3.17,0,0,1,349,90.53Zm.25-12.67c-.17.17-.25-.09-.25-.77s.08-.84.25-.5A.91.91,0,0,1,349.21,77.86ZM351,83.94c0,.85.17,1.1.51.76a1.07,1.07,0,0,1,.13-.51,1.82,1.82,0,0,0,.12-.76C351.57,83.27,351.32,83.43,351,83.94Zm1-2.28a4.2,4.2,0,0,0,.5-1.78c0-.84-.17-.76-.5.26a5.71,5.71,0,0,0-.51,1.9C351.49,82.46,351.66,82.33,352,81.66Zm5.83,102.66c.5.51,0,.85-1.52,1-.85.17-1.57.3-2.16.38a5,5,0,0,0-1.39.38c-.51.17-.43-.08.25-.76l1.52-1-1.77.51c-1,.17-1.36.08-1-.26a8.75,8.75,0,0,1,3.17-.63A5.23,5.23,0,0,1,357.83,184.32ZM354,96.11c.33-2,.38-2.71.12-2A44,44,0,0,0,353,98.64a5.37,5.37,0,0,0-.13,1.9c.09.43.21.47.39.13a3.64,3.64,0,0,0,.38-1.65C353.73,98.09,353.86,97.12,354,96.11Zm1-4.06c.34-.34.34-.76,0-1.27,0-.33,0-.42-.13-.25a1.85,1.85,0,0,0-.12.76C354.79,92,354.87,92.22,355,92.05Zm4.31-18-.76,1.52-1,3.55a5.63,5.63,0,0,1-.25,1.78,3.94,3.94,0,0,0-.25,1c-.51.51-.43.6.25.25a6.69,6.69,0,0,0,1-2.78l.77-3.81Zm.76,90.24c.34-.33.34-.84,0-1.52,0-.16,0-.16-.13,0a1.88,1.88,0,0,0-.12.76,2.81,2.81,0,0,0,.12,1C360.07,164.72,360.11,164.63,360.11,164.29Zm0-3q.25.25.63-1.14c.26-.93.55-2,.89-3.29s.63-2.58.89-3.93a18.65,18.65,0,0,0,.38-2.79q0-.76-.51,0a17.17,17.17,0,0,0-.76,2.28c-.34,1.18-.63,2.41-.89,3.68s-.46,2.4-.63,3.42S359.94,161.08,360.11,161.25Zm.51-14.45q-.25-.5-.51.51c0,.68.08.93.25.76A2,2,0,0,0,360.62,146.8Zm.76-101.14c.33-1.35.25-2-.26-2-.34,0-.5.67-.5,2v1.52a1,1,0,0,0,.25.76Q361.38,47.94,361.38,45.66Zm.76-8.36a18.71,18.71,0,0,0-.64,4.56c.09.68.38,0,.89-2a5,5,0,0,0,.25-2.66,9.48,9.48,0,0,1-.25-1.39V34.51c0-.84.17-1.27.51-1.27a.67.67,0,0,0,.76-.76c0-.67-.51-1-1.52-1s-1.36.5-1,1.52c.17.34.42.93.76,1.77A4.46,4.46,0,0,1,362.14,37.3Zm.25,33c.34-.67.34-1.18,0-1.52,0-.34,0-.42-.13-.25a2.74,2.74,0,0,0-.12,1,1.85,1.85,0,0,0,.12.76C362.35,70.42,362.39,70.42,362.39,70.25Zm2,72.24q-.51-1-.51.51c0,.85.17,1.1.51.76Zm.51-24.08c-.35-.33-.51-.16-.51.51,0,.85.16,1.1.51.76Zm.5,49.43c0-.67.09-.92.26-.76a1.11,1.11,0,0,1-.26,1.52C365.09,169.11,365.09,168.86,365.43,167.84Zm0-50.95c.34-.33.34-.84,0-1.52q0-.25-.12,0a1.67,1.67,0,0,0-.13.76C365.18,117,365.26,117.23,365.43,116.89Zm2.28,27.63c.17-.84.3-1.56.38-2.15s0-1-.12-1.14c0-.68-.34-.17-1,1.52a17.68,17.68,0,0,0-.38,2,2.79,2.79,0,0,0,.13,1.52c0,.34.08.38.25.12A10,10,0,0,0,367.71,144.52Zm.76-21.54a.91.91,0,0,0,0-1.27c0-.34,0-.42-.12-.26a2.54,2.54,0,0,0-.13,1,1.67,1.67,0,0,0,.13.76C368.43,123.4,368.47,123.32,368.47,123Zm7.1-23.58c.85.34,1,0,.51-1,0-.85-.25-1.27-.76-1.27-.34,0-.64.47-.89,1.39s-.63,3-1.14,6.21l-2,10.65c-.34,1.36-.63,2.71-.88,4.06a17.51,17.51,0,0,0-.38,3,23.84,23.84,0,0,1-.26,2.66c-.17,1.27-.34,2.5-.51,3.68a54,54,0,0,0-.76,5.57c0,.68.34-.16,1-2.53l1.27-4.82c.16-.51.46-1.86.88-4s.85-4.52,1.27-7,.84-4.77,1.27-7a32.47,32.47,0,0,0,.63-4c.34-1.52.59-2.28.76-2.28q.51,0,.51-1c0-.84-.25-.92-.76-.25-.34,1-.51.76-.51-.76C374.81,99.65,375.06,99.23,375.57,99.4Zm-3,27.63a.63.63,0,0,0,0-1c.17-.34.21-.47.13-.38a2.27,2.27,0,0,0-.38.63C372.28,127,372.36,127.2,372.53,127Zm5.58-38.53c.33.34.59.43.76.26a1.27,1.27,0,0,0-.64-1.15c-.42-.25-.72-.21-.88.13a2.69,2.69,0,0,0-.38,1.4c-.09.76-.22,1.64-.38,2.66a7.22,7.22,0,0,0-.38,2.53c.08.34.21.26.38-.25a9.27,9.27,0,0,0,.76-4.06C377.51,88.5,377.77,88,378.11,88.5Zm7.35-52.72a2.34,2.34,0,0,0,.76.88.66.66,0,0,1,.25.89c0,.34,0,.38-.13.13a4.11,4.11,0,0,1-.12-1.14,1.16,1.16,0,0,0-.38-1C385.58,35.36,385.46,35.44,385.46,35.78Zm3.8-23.32c.84,0,1.27-.17,1.27-.51,0-.51-.43-.59-1.27-.25-.85,0-1.27.17-1.27.5a.23.23,0,0,0,.26.26Zm4.82-1c0-.16-.34-.25-1-.25-.85,0-1.27.17-1.27.51,0,.5.42.59,1.27.25Zm2,0a1.85,1.85,0,0,0,.76-.12c.17-.09.17-.13,0-.13-.67-.34-1.18-.34-1.52,0-.34,0-.42,0-.25.13A2.78,2.78,0,0,0,396.1,11.44Zm8.62,1c4.22,0,6.09-.26,5.58-.76a6.23,6.23,0,0,0-2.28-.26h-3.8c-1.36,0-2.58.05-3.68.13a4.28,4.28,0,0,0-1.9.38c0,.17.59.3,1.77.38S403,12.46,404.72,12.46Zm8.87-.26c1.35,0,1.78-.08,1.27-.25a5.46,5.46,0,0,1-1.14-.13,1.75,1.75,0,0,0-1.14.13C412.07,12.12,412.41,12.2,413.59,12.2Z"/></g></g></svg>