<?xml version="1.0" encoding="utf-8"?>
<!-- Generator: Adobe Illustrator 25.4.1, SVG Export Plug-In . SVG Version: 6.00 Build 0)  -->
<svg version="1.1" id="Capa_1" xmlns="http://www.w3.org/2000/svg" xmlns:xlink="http://www.w3.org/1999/xlink" x="0px" y="0px"
	 viewBox="0 0 24 24" style="enable-background:new 0 0 24 24;" xml:space="preserve">
<style type="text/css">
	.st0{fill-rule:evenodd;clip-rule:evenodd;fill:#FFFFFF;}
</style>
<path class="st0" d="M24,12c0,6.6-5.4,12-12,12S0,18.6,0,12S5.4,0,12,0S24,5.4,24,12z M12,5c-3.9,0-7,3.1-7,7s3.1,7,7,7s7-3.1,7-7
	S15.9,5,12,5z M15.2,15.1c-0.1,0.2-0.4,0.3-0.6,0.1c-1.6-1-3.7-1.2-6.1-0.7c-0.2,0.1-0.5-0.1-0.5-0.3C7.9,14,8,13.8,8.3,13.7
	c2.7-0.6,5-0.3,6.8,0.8C15.3,14.6,15.3,14.9,15.2,15.1z M16.1,13.2c-0.2,0.3-0.5,0.3-0.8,0.2c-1.9-1.2-4.8-1.5-7-0.8
	c-0.3,0.1-0.6-0.1-0.7-0.4c-0.1-0.3,0.1-0.6,0.4-0.7c2.5-0.8,5.7-0.4,7.9,0.9C16.1,12.6,16.2,12.9,16.1,13.2z M16.1,11.2
	c-2.3-1.3-6-1.5-8.1-0.8c-0.3,0.1-0.7-0.1-0.8-0.4s0.1-0.7,0.4-0.8c2.5-0.8,6.6-0.6,9.2,0.9c0.3,0.2,0.4,0.6,0.2,0.9
	C16.9,11.3,16.5,11.4,16.1,11.2z"/>
</svg>
