<svg xmlns="http://www.w3.org/2000/svg" xmlns:xlink="http://www.w3.org/1999/xlink" viewBox="0 0 506.73 206.16"><defs><style>.cls-1{fill:none;}.cls-2{fill:#fff;}.cls-3{clip-path:url(#clip-path);}.cls-4{clip-path:url(#clip-path-2);}</style><clipPath id="clip-path" transform="translate(21.11 -2)"><rect class="cls-1" y="2" width="134" height="188" rx="67"/></clipPath><clipPath id="clip-path-2" transform="translate(21.11 -2)"><rect class="cls-1" width="134" height="188" rx="67"/></clipPath></defs><g id="Capa_2" data-name="Capa 2"><g id="Capa_1-2" data-name="Capa 1"><path class="cls-2" d="M49.1,96.19A46,46,0,0,1,23.5,90.5a73.58,73.58,0,0,1,22-6A80,80,0,0,1,31,63a79.23,79.23,0,0,1-4.5-12.5A62.63,62.63,0,0,1,45,59,62.26,62.26,0,0,1,57.91,70.67C56.48,62.5,55.31,48.05,62,33a58.56,58.56,0,0,1,5-9,75.81,75.81,0,0,1,4,9,79.42,79.42,0,0,1,4,37A85.49,85.49,0,0,1,93,57a84.27,84.27,0,0,1,14-6,60.39,60.39,0,0,1-5,14A61.15,61.15,0,0,1,87,84a43.88,43.88,0,0,1,14,2,43.44,43.44,0,0,1,9,4,46.49,46.49,0,0,1-9,4,47.06,47.06,0,0,1-16.57,2.19c.88,2.07,1.75,4.34,2.57,6.81s1.47,4.81,2,7A65,65,0,0,1,67,99.44,44.48,44.48,0,0,1,44.55,110,51.83,51.83,0,0,1,49.1,96.19Z" transform="translate(21.11 -2)"/><g class="cls-3"><path class="cls-2" d="M37.42,195.24a60.56,60.56,0,0,1,103.86-57" transform="translate(21.11 -2)"/><path d="M48.62,195.65A50.08,50.08,0,0,1,137,149.88" transform="translate(21.11 -2)"/><path class="cls-2" d="M59.32,195.93a40.39,40.39,0,0,1,71.88-36.84" transform="translate(21.11 -2)"/><path d="M68.43,193.68A31.3,31.3,0,1,1,125,167.59" transform="translate(21.11 -2)"/><path class="cls-2" d="M81.82,193.73a20.91,20.91,0,1,1,34-20.42" transform="translate(21.11 -2)"/><circle cx="116.56" cy="175.87" r="12.83"/></g><g class="cls-4"><path class="cls-2" d="M-21.11,176.87a60.56,60.56,0,1,1,119.88,12.2" transform="translate(21.11 -2)"/><path d="M-10.63,176.87a50.07,50.07,0,1,1,97.46,16.2" transform="translate(21.11 -2)"/><path class="cls-2" d="M-.93,176.87A40.38,40.38,0,1,1,75.53,195" transform="translate(21.11 -2)"/><circle cx="60.56" cy="174.87" r="31.29"/><circle class="cls-2" cx="60.56" cy="174.87" r="20.9"/><circle cx="60.56" cy="174.87" r="12.83"/></g><path class="cls-2" d="M67,11a58.07,58.07,0,0,1,58,58v54A58,58,0,0,1,9,123V69A58.07,58.07,0,0,1,67,11m0-9h0A67,67,0,0,0,0,69v54a67,67,0,0,0,67,67h0a67,67,0,0,0,67-67V69A67,67,0,0,0,67,2Z" transform="translate(21.11 -2)"/><path class="cls-2" d="M196.2,107.43a11,11,0,0,1-.7,3.88,9.88,9.88,0,0,1-2,3.23,9.49,9.49,0,0,1-3.18,2.22,10.56,10.56,0,0,1-4.25.82,8.44,8.44,0,0,1-4.76-1.26,15.57,15.57,0,0,1-3-2.48l4.67-3.73a5.76,5.76,0,0,0,1.48,1.08,3.84,3.84,0,0,0,1.78.44,4.6,4.6,0,0,0,1.22-.2,3.41,3.41,0,0,0,1.32-.76,4.67,4.67,0,0,0,1-1.52,6,6,0,0,0,.44-2.53V75.72h5.95Z" transform="translate(21.11 -2)"/><path class="cls-2" d="M227.33,107.9a9.54,9.54,0,0,1-.76,3.79,9.75,9.75,0,0,1-5.13,5.13,9.53,9.53,0,0,1-7.46,0,9.84,9.84,0,0,1-3.06-2.07,9.73,9.73,0,0,1-2.07-3.06,9.37,9.37,0,0,1-.76-3.79V75.72H214v31.6a4.49,4.49,0,0,0,1,3.26,3.81,3.81,0,0,0,5.25,0,4.45,4.45,0,0,0,1-3.26V75.72h6Z" transform="translate(21.11 -2)"/><path class="cls-2" d="M239.39,75.72h6v41.51h-6Z" transform="translate(21.11 -2)"/><path class="cls-2" d="M276.29,108a9.68,9.68,0,0,1-2.74,6.73,10,10,0,0,1-3,2.1,8.87,8.87,0,0,1-3.7.79,13.37,13.37,0,0,1-3.44-.47,8.4,8.4,0,0,1-3.15-1.6,8.64,8.64,0,0,1-2.3-3,10.82,10.82,0,0,1-.9-4.72V84.93a10.06,10.06,0,0,1,.7-3.79,8.85,8.85,0,0,1,2-3,9.25,9.25,0,0,1,3.06-2,10.15,10.15,0,0,1,3.93-.73,9.66,9.66,0,0,1,3.79.73,9.07,9.07,0,0,1,5,5.19,10.61,10.61,0,0,1,.73,4v2.33h-5.94v-2a4.79,4.79,0,0,0-1-3,3.25,3.25,0,0,0-2.69-1.28,3,3,0,0,0-2.94,1.37,7.29,7.29,0,0,0-.73,3.47v21.21a5.48,5.48,0,0,0,.79,3,3.1,3.1,0,0,0,2.83,1.22,4.56,4.56,0,0,0,1.25-.2,3.35,3.35,0,0,0,1.22-.68,3.39,3.39,0,0,0,.91-1.28,5.22,5.22,0,0,0,.35-2v-2h5.94Z" transform="translate(21.11 -2)"/><path class="cls-2" d="M293,99.68l-8.16-24h6.3l4.78,16.5H296l4.78-16.5h6.29l-8.16,24v17.55h-6Z" transform="translate(21.11 -2)"/><path class="cls-2" d="M333.48,75.72H351.2v5.6H339.42V93.91h10.26V99.5H339.42v17.73h-5.94Z" transform="translate(21.11 -2)"/><path class="cls-2" d="M361.52,75.72h5.94v41.51h-5.94Z" transform="translate(21.11 -2)"/><path class="cls-2" d="M379.53,75.72h17.72v5.6H385.47V93.5h10.26v5.6H385.47v12.18h11.78v6H379.53Z" transform="translate(21.11 -2)"/><path class="cls-2" d="M407.39,75.72h5.95v35.56h11.77v6H407.39Z" transform="translate(21.11 -2)"/><path class="cls-2" d="M435.26,75.72h8.8q5.07,0,7.75,2.83c1.79,1.88,2.68,4.52,2.68,7.9v19.41c0,3.89-.94,6.75-2.82,8.6s-4.6,2.77-8.14,2.77h-8.27Zm5.94,35.91h2.74a4.44,4.44,0,0,0,3.56-1.25,6.09,6.09,0,0,0,1.05-3.94v-20a6.26,6.26,0,0,0-1-3.79c-.67-.9-1.87-1.34-3.62-1.34H441.2Z" transform="translate(21.11 -2)"/><path class="cls-2" d="M485.62,87.67h-5.94V86.33a6.37,6.37,0,0,0-1-3.53,3.55,3.55,0,0,0-3.23-1.48,3.88,3.88,0,0,0-2,.46,3.37,3.37,0,0,0-1.23,1.2,5.06,5.06,0,0,0-.61,1.69,10.9,10.9,0,0,0-.17,2c0,.82,0,1.51.08,2.07a3.79,3.79,0,0,0,.44,1.46,3.46,3.46,0,0,0,1,1.08,9.44,9.44,0,0,0,1.84.93l4.54,1.8a11.49,11.49,0,0,1,3.21,1.78,7.1,7.1,0,0,1,1.89,2.39,10.27,10.27,0,0,1,.91,3.15,32.59,32.59,0,0,1,.23,4,21.39,21.39,0,0,1-.52,4.87,10.36,10.36,0,0,1-1.72,3.85,8.27,8.27,0,0,1-3.18,2.53,11.32,11.32,0,0,1-4.84.94,10.65,10.65,0,0,1-4-.76,10.08,10.08,0,0,1-3.21-2.07,9.85,9.85,0,0,1-2.12-3.12,9.62,9.62,0,0,1-.79-3.91v-2.21h5.94v1.86a4.9,4.9,0,0,0,1,2.95,3.75,3.75,0,0,0,3.23,1.31,5.22,5.22,0,0,0,2.36-.44A3,3,0,0,0,479,110a5,5,0,0,0,.56-2,25.36,25.36,0,0,0,.12-2.57,24.37,24.37,0,0,0-.12-2.68,4.17,4.17,0,0,0-.5-1.69,2.93,2.93,0,0,0-1.05-1,15.28,15.28,0,0,0-1.77-.88L472,97.41q-3.84-1.57-5.16-4.17a14.41,14.41,0,0,1-1.31-6.5,15,15,0,0,1,.64-4.43,10.33,10.33,0,0,1,1.9-3.62,9.08,9.08,0,0,1,3.17-2.42,10.52,10.52,0,0,1,4.49-.9,9.74,9.74,0,0,1,4.05.82,9.94,9.94,0,0,1,3.15,2.15,9.46,9.46,0,0,1,2,3,8.6,8.6,0,0,1,.7,3.41Z" transform="translate(21.11 -2)"/></g></g></svg>