<svg xmlns="http://www.w3.org/2000/svg" xmlns:xlink="http://www.w3.org/1999/xlink" viewBox="0 0 469.84 159"><defs><style>.cls-1{fill:#fff;}.cls-2{fill:url(#Degradado_sin_nombre_6);}</style><linearGradient id="Degradado_sin_nombre_6" x1="79.5" x2="79.5" y2="159" gradientUnits="userSpaceOnUse"><stop offset="0" stop-color="#fea009"/><stop offset="1" stop-color="#ff5507"/></linearGradient></defs><g id="Capa_2" data-name="Capa 2"><g id="Capa_1-2" data-name="Capa 1"><path class="cls-1" d="M205.21,54.51h10.62v42H238v8.76H205.21Z"/><path class="cls-1" d="M243.3,57.36a5.49,5.49,0,1,1,5.49,5.35A5.39,5.39,0,0,1,243.3,57.36Zm.35,10.2h10.27v37.71H243.65Z"/><path class="cls-1" d="M271.51,98.83h-.21v6.44H261V54.51H271.3v19.6h.21a12.23,12.23,0,0,1,11.64-7.32c9.46,0,15.34,7.32,15.34,19.59v0c0,12.24-5.88,19.62-15.37,19.62A12.2,12.2,0,0,1,271.51,98.83ZM288,86.42v0c0-6.89-3.24-11.08-8.34-11.08s-8.4,4.29-8.4,11.08v0c0,6.82,3.41,11.11,8.4,11.11S288,93.27,288,86.42Z"/><path class="cls-1" d="M302.39,86.49v0c0-12,7.07-19.66,18.11-19.66s18,7.49,18,18.89v3.16h-26c.1,6,3.38,9.53,8.62,9.53,4.22,0,6.78-2.32,7.52-4.43l.07-.21h9.43l-.11.39c-1.16,5.56-6.36,11.92-17.12,11.92C309.39,106,302.39,98.55,302.39,86.49Zm10.23-4.12h16c-.64-5.2-3.7-7.91-7.95-7.91S313.29,77.27,312.62,82.37Z"/><path class="cls-1" d="M343.75,67.56H354v6.58h.21c1.13-4.64,4.19-7.35,8.59-7.35a11.59,11.59,0,0,1,2.95.39v9a10.44,10.44,0,0,0-3.73-.57c-5.06,0-8,3-8,8.52v21.1H343.75Z"/><path class="cls-1" d="M374,94.72V75.3h-5.24V67.56H374V58.35h10.38v9.21h6.89V75.3h-6.89V93.59c0,3.52,1.58,4.71,4.68,4.71a17.81,17.81,0,0,0,2.21-.17v7.52a31.46,31.46,0,0,1-5,.39C378,106,374,102.81,374,94.72Z"/><path class="cls-1" d="M395.07,86.49v0c0-12,7.07-19.66,18.11-19.66s18,7.49,18,18.89v3.16H405.2c.1,6,3.37,9.53,8.61,9.53,4.23,0,6.79-2.32,7.53-4.43l.07-.21h9.43l-.11.39C429.57,99.68,424.37,106,413.6,106,402.07,106,395.07,98.55,395.07,86.49Zm10.23-4.12h16c-.64-5.2-3.7-7.91-7.95-7.91S406,77.27,405.3,82.37Z"/><path class="cls-1" d="M445.15,86.49,433.41,67.56H445l6.79,12.74H452l6.68-12.74h11.18L458.06,86.21l11.68,19.06H458.59l-7.18-13.09h-.21l-7.07,13.09H433.34Z"/><rect class="cls-2" width="159" height="159" rx="32.72"/><polygon class="cls-1" points="24.16 88 49.16 63 96.32 63 135.24 24.08 135.24 41.59 101.77 75.06 56.16 75.06 23.52 107.7 24.16 88"/><polygon class="cls-1" points="23.52 117.15 58.42 82.25 105.47 82.25 135.47 52.25 135.47 70.05 110.84 94.68 64.16 94.68 23.63 135.21 23.52 117.15"/></g></g></svg>