<svg xmlns="http://www.w3.org/2000/svg" viewBox="0 0 710.77 357"><defs><style>.cls-1{fill:#f2f2f2;}.cls-2,.cls-3,.cls-4{fill:none;stroke-miterlimit:10;}.cls-2,.cls-4{stroke:#fcfcfc;}.cls-2,.cls-3{stroke-width:1.5px;}.cls-3{stroke:#2dbae0;}.cls-4{stroke-width:2px;}</style></defs><g id="Capa_2" data-name="Capa 2"><g id="Capa_1-2" data-name="Capa 1"><path class="cls-1" d="M268.57,166.6h16.61c8.73,0,14.67,5.77,14.67,14.4v.06c0,8.61-5.94,14.4-14.67,14.4h-8.9v14.25h-7.71Zm7.71,6.31v16.34h7c5.53,0,8.75-3,8.75-8.16V181c0-5.17-3.22-8.12-8.75-8.12Z"/><path class="cls-1" d="M305.47,166.6h17.21c9.2,0,14.82,5.11,14.82,13.45v.06c0,5.79-3.11,10.48-8.13,12.31l9.42,17.29H330l-8.48-16.13h-8.34v16.13h-7.71Zm16.41,20.89c4.87,0,7.73-2.69,7.73-7.32v-.06c0-4.52-3-7.26-7.88-7.26h-8.55v14.64Z"/><path class="cls-1" d="M342.26,188.17v-.06c0-13.68,7.91-22.26,20.46-22.26s20.44,8.58,20.44,22.26v.06c0,13.72-7.83,22.29-20.44,22.29S342.26,201.89,342.26,188.17Zm33.07,0v-.06c0-9.56-4.9-15.56-12.61-15.56s-12.61,6-12.61,15.56v.06c0,9.59,4.9,15.6,12.61,15.6S375.33,197.67,375.33,188.17Z"/><path class="cls-1" d="M389.29,166.6h27.49v6.48H397v12.76h18.07v6.28H397v17.59h-7.71Z"/><path class="cls-1" d="M422.37,166.6h7.71v43.11h-7.71Z"/><path class="cls-1" d="M448.21,173.08H435.3V166.6h33.47v6.48H455.89v36.63h-7.68Z"/><path class="cls-1" d="M474,166.6h8.9l13.21,32.93h.21l13.2-32.93h8.91v43.11h-6.93V179.06h-.24l-12.43,30.65h-5.23L481.2,179.06H481v30.65h-7Z"/><path class="cls-1" d="M538.48,166.6h8.67l15.41,43.11h-8.09l-3.65-11.14h-16l-3.65,11.14h-8.06Zm-1.76,26h12.16l-6-18.34h-.18Z"/><path class="cls-1" d="M567.14,166.6h7.71v20.23h.21l16.7-20.23h8.81l-15.92,19,17.24,24.08H592.5l-13.41-18.94-4.24,5v13.89h-7.71Z"/><path class="cls-1" d="M605.92,166.6h27.91v6.48h-20.2v11.63h19.09V191H613.63v12.28h20.2v6.48H605.92Z"/><path class="cls-1" d="M640.53,166.6h17.2c9.21,0,14.82,5.11,14.82,13.45v.06c0,5.79-3.1,10.48-8.12,12.31l9.41,17.29h-8.79l-8.48-16.13h-8.34v16.13h-7.7Zm16.4,20.89c4.87,0,7.74-2.69,7.74-7.32v-.06c0-4.52-3-7.26-7.89-7.26h-8.55v14.64Z"/><path class="cls-1" d="M677,198.06l0-.45h7.38l.06.36c.57,3.71,4.36,6,9.77,6s8.84-2.42,8.84-6.13v0c0-3.22-2.24-5-7.79-6.12l-4.64-1c-8.48-1.76-12.66-5.7-12.66-12.13v0c0-7.59,6.69-12.73,16-12.73s15.57,5,16,12.34l0,.51h-7.38l-.06-.36c-.5-3.76-3.82-6-8.66-6-5.05,0-8.19,2.39-8.19,5.82v0c0,3.05,2.36,4.84,7.56,5.92l4.66,1c9,1.85,12.88,5.49,12.88,12.22v0c0,8-6.33,13.14-16.85,13.14C684,210.46,677.52,205.8,677,198.06Z"/><path class="cls-2" d="M147,164.69c-1-.4-1.81.09-2.67.31a58.07,58.07,0,0,1-18.53,1.38c-1.19-.08-2.14-.19-2.78,1.29-.76,1.78-2.57,2.1-4.3,2.13a22.77,22.77,0,0,1-8.28-1.81l-1.72-.67a1,1,0,0,0-1.26.15c-2.56,2.79-6,4.21-9.09,6.3-4.51,3.1-8.41,6.79-10.71,11.92a27.34,27.34,0,0,0-2.52,11.06,2.92,2.92,0,0,0,1,2.43c2.65,2.36,5.24,4.8,7.83,7.23,1.23,1.15,1.21,1.28-.16,2.2a34.37,34.37,0,0,1-11,5.12,15.16,15.16,0,0,1-10.15-.68,2.6,2.6,0,0,1-1.78-2.63,72.23,72.23,0,0,0-.46-7.92,10.31,10.31,0,0,1,.72-5.21,36.7,36.7,0,0,0,2.22-20.59c-.11-.61-.11-1.24-.19-2.12-1.3,2.16-1.89,4.53-3.61,6.41a7.06,7.06,0,0,1-.88-2.55,13,13,0,0,0-3.16-6.12,7.85,7.85,0,0,1-2-6.08c-1.08,0-1.64.84-2.34,1.37-3.24,2.49-6.44,5.06-10.34,6.46a10.08,10.08,0,0,1-1.77.48c-3.23.5-4.77-.67-5.23-4a55.69,55.69,0,0,1-.59-13.71c.53-4.9,2.65-8.68,6.91-11.18a54.79,54.79,0,0,1,11.33-4.52c4.32-1.38,8.66-2.68,12.91-4.26A33.54,33.54,0,0,0,84.73,131c6.69-5.78,14.55-8.84,23-10.66a7.21,7.21,0,0,0,2.71-1.17A132.5,132.5,0,0,0,146.6,81.75a95,95,0,0,0,4.89-8.18,2.58,2.58,0,0,1,2.72-1.6c11.07.39,22,1.23,32.89,3.78a120.42,120.42,0,0,1,26,9.15,101.22,101.22,0,0,1,16.31,10c1.23.92,2.25,1.49,3.93.94,1.84-.6,3.81.16,5.66.62A60.67,60.67,0,0,1,251.83,101c4,2,7.52,1.45,11-1.09a3.92,3.92,0,0,1,2.06-1.08,9.33,9.33,0,0,1-8.08,10.24c-3.36.62-6.57,0-9.77-.94-2.81-.8-5.61-1.62-8.59-1.18-4.8.71-7.63,3.61-8,8.46a6.81,6.81,0,0,1-1.44,3.8,44.42,44.42,0,0,0-5.11,8.57,11.9,11.9,0,0,0-1.07,5,4.45,4.45,0,0,0,1.32,3.27c-.18.84-.83.79-1.29.95-3.21,1.06-6.41,2.18-9.84,2.21a9.62,9.62,0,0,1-4.08-.54,5.23,5.23,0,0,1-3.32-4.41,5,5,0,0,1-.07-1.16,7.92,7.92,0,0,0-1.32-5.93,7.93,7.93,0,0,1-.71-2c-1.15.51-1.27,1.47-1.28,2.49a15.59,15.59,0,0,0,1.3,5.64c.46,1.24,1.06,2.42,1.58,3.63.66,1.53.64,1.62-.91,2.12a40.28,40.28,0,0,0-10.2,4.79,15,15,0,0,0-5.55,5.8c-2,4.18-4.9,4.94-9,3.66a9.14,9.14,0,0,0-6.42.2c-2.07.8-4.23,1.37-6.34,2.08a23.87,23.87,0,0,0-5.07,2.18,62.41,62.41,0,0,1-13.39,6.15c-.48.15-1.09.18-1.23.86Zm-49.79-35,0,0c0-1.27,1-1.84,1.79-2.51,1.41-1.17,2.87-2.28,4.31-3.42.26-.09.7-.25.58-.45-.23-.39-.6-.13-.88.1a14.88,14.88,0,0,0-1.77.48,51.58,51.58,0,0,0-12,6.79A67.68,67.68,0,0,1,60,143.74c-6.46,1.2-11.32,4.79-13.54,11.29-1.52,4.45-1.29,9.06-.43,13.62a2.44,2.44,0,0,0,3.09,2,11.59,11.59,0,0,0,2.59-.92A34.57,34.57,0,0,0,57.51,166c2.25-1.63,4.58-3.2,7.4-3.59,2.39-.32,2.94.36,2.41,2.66-.77,3.42,0,5.28,3,7.48a14,14,0,0,0,.8-5.73,5.83,5.83,0,0,0-8-5.12,38.51,38.51,0,0,0-7.6,4.32,11.61,11.61,0,0,1-3.44,1.86,3,3,0,0,1-4-2.16,5.73,5.73,0,0,1-.31-2.52,18.24,18.24,0,0,1,2.05-7.58,12.15,12.15,0,0,1,5.67-5.28,18.78,18.78,0,0,1,9.24-1.4A31.71,31.71,0,0,0,75,147.4a2.71,2.71,0,0,0,1.84-1.56,17.78,17.78,0,0,1,7.69-7.3A18.41,18.41,0,0,0,81,143c-3,4.88-4.91,10.05-3.66,15.93a26.94,26.94,0,0,1-1.07,15.79,4.35,4.35,0,0,0-.21,2.73,37,37,0,0,1-1.47,21.31,3.27,3.27,0,0,0-.42,1.79c.53,2.37.28,4.82.69,7.19.33,1.91.43,2.09,2.26,2.23a20,20,0,0,0,10.68-2.28c1.07-.54,1.13-.89.29-1.71-1.61-1.56-3.28-3.05-4.93-4.57-.73-.68-1.53-1.28-1.6-2.44a25.82,25.82,0,0,1,1.55-11.68,34.54,34.54,0,0,1,9.87-13c3.24-2.78,6.9-4.92,10.39-7.32,8.86-6.11,12.18-14.63,10.47-25.26-.07-.46-.18-.92-.23-1.38s-.34-.76.09-1.19c4.52,9.41,1.6,17.84-3.2,26A11,11,0,0,0,119,166.2a35.84,35.84,0,0,1-4.88-3c.18-.17.23-.25.27-.25.92,0,1.85,0,2.76.07a101,101,0,0,0,21.14-.53,60.94,60.94,0,0,0,20.34-6.34,7.39,7.39,0,0,0,3.45-3.55c2.12-4.48,4.36-8.91,6.55-13.37.93-1.9.91-1.9,2.91-1,1.19.54,2.39,1,3.59,1.58.57.25,1.17.54,1.74.11,1.69-1.25,3.36-2.54,5.18-3.92a4.52,4.52,0,0,0-2.57-.3c-7.14.17-14.29,0-21.43.46-2,.12-2,.06-2.74-1.71A28.94,28.94,0,0,1,153,121.2a9.07,9.07,0,0,1,1.4-4.69v1.74A27.74,27.74,0,0,0,157.64,131c.43.86.87,1.52,2,1.54,2.84,0,5.68.28,8.51.37,6.3.21,12.6.37,18.89.59,2.14.07,4.28.26,6.42.39a22.43,22.43,0,0,1-5.22,1.7,6.19,6.19,0,0,0-3.34,1.87c-2.32,2.15-4.7,4.25-7,6.44a2,2,0,0,1-2.47.45c-1-.48-2.2-.72-3.23-1.23s-1.55-.15-1.94.81c-1,2.38-2,4.73-2.94,7.1-.14.34-.31.73.25,1.11,1.91-.75,3.93-1.47,5.89-2.36s3.93-1.73,5.92,0a2.31,2.31,0,0,0,.85.35c2.13.64,3.61.14,4.63-1.9,2.29-4.57,6.07-7.32,10.59-9.2,2.05-.84,4.14-1.57,6.39-2.43a30.24,30.24,0,0,1-2.24-7.4,2.38,2.38,0,0,0-1.82-2c-3.1-1.14-6.17-2.35-9.26-3.53-2.22-.86-4.44-1.73-6.68-2.54-1-.36-1.46-.8-.71-1.82a6.75,6.75,0,0,0,.56-1c2.52-5,3-10.07.47-15.24-.37-.76-.73-1.53-1.09-2.29l0,0c.42-.18.72,0,1,.31a12.23,12.23,0,0,1,3.62,5.57A16.6,16.6,0,0,1,186,116c-.44,1.83-.43,1.9,1.22,2.69a71.49,71.49,0,0,0,10.57,4.55,3.28,3.28,0,0,0,2.76,0,27,27,0,0,1-1-8.05c.17-3.12,1.2-6.16,2.68-7.4a32.47,32.47,0,0,0,4.07,18.52c.84-.28.94-1.16,1.38-1.76s.7-1.58,1.61-1.88l0,0c-.17.67-.3,1.36-.53,2a21.16,21.16,0,0,0-1.24,6.13c-.13,3.66,1.77,5.71,5.34,5.88A19.75,19.75,0,0,0,218,136a1.49,1.49,0,0,0,1.35-1.94c-.49-3.58.73-6.72,2.58-9.69a36,36,0,0,1,4.24-5.5,2.86,2.86,0,0,0,1.05-2,12.07,12.07,0,0,1,2.56-7.33.73.73,0,0,0,.11-.87c-.88-.33-1.57.31-2.35.54-1.08.33-1.9,1.35-3.15,1.22l0,0a1.5,1.5,0,0,1,.51-1,15.67,15.67,0,0,1,14.94-5.33c3.33.54,6.58,1.51,9.93,2,3,.43,5.14.27,7.06-.83-4.63.4-8.64-1.09-12.53-3a23.26,23.26,0,0,0-6.52-2.21,35.58,35.58,0,0,0-12.6.35c-1.87.35-3.72.78-6.11,1.28,2.51-2.41,5.38-2.87,7.88-4,0-.63-.55-.78-.91-1-2.28-1.58-4.64-3-7.05-4.39a119.47,119.47,0,0,0-34.7-12.71c-4.06-.85-8.14-1.53-12.24-2.13-4.93-.73-9.92-1-14.88-1.49a2.42,2.42,0,0,0-2.76,1.77,41.47,41.47,0,0,1-5.12,8.56,110.89,110.89,0,0,1-15.29,16.45c-9.33,8.34-18.66,16.67-29.86,22.47C101.76,126.49,99.53,128.17,97.2,129.67ZM73.85,172.73a7.89,7.89,0,0,0,.58-1A23.73,23.73,0,0,0,75,158.83a12.48,12.48,0,0,1,.09-6.67c.29-1,.57-2,.91-3.25-2.18.48-4.16,1-6.16,1.35-2.88.56-5.81.32-8.72.43a9.44,9.44,0,0,0-7,3,14,14,0,0,0-3.31,6.05,9.2,9.2,0,0,0-.18,5.28c.32,1,.77,1,1.51.55.25-.16.5-.34.77-.5,3.2-2,6.37-4,9.64-5.9s6.81-1.06,9.14,2.07a12.41,12.41,0,0,1,2.2,8.82A5.57,5.57,0,0,0,73.85,172.73ZM230.6,108.54l.16-.1s-.08-.13-.13-.13-.1.06-.15.09Z"/><path class="cls-3" d="M206.58,158.17l-14.22-.56c11-3.94,22.21-7.3,33.85-10.9-3,11.24-6.18,22-9.34,32.75-.78-3.73-.35-7.54-.76-11.29-.87,0-1.24.57-1.68.94Q201.82,180,189.24,191q-13.4,11.61-26.78,23.23a1.35,1.35,0,0,1-2.14,0q-8.13-7-16.32-14.06c-4.1-3.52-8.23-7-12.29-10.57-1-.83-1.51-.57-2.33.11-6.09,5.1-12.22,10.16-18.33,15.24L82.24,228.82c-.76-.21-.49-.78-.49-1.17,0-2.88,0-5.77,0-8.65,0-1.05.17-1.72,1.38-2,5.7-1.21,12.62-5.36,17.25-9.05l-4.47-4.24c-.4-.38-.76-.78-1.19-1.12-.78-.62-.86-1.15,0-1.82,1.27-1,2.47-2.1,3.72-3.14q14.7-12.21,29.42-24.39c3.44-2.83,2.36-2.64,5.54,0,8.83,7.49,17.59,15.07,26.39,22.6,1.71,1.46,1.72,1.44,3.37,0l36.94-32C202.1,162.16,204.11,160.35,206.58,158.17Z"/><path class="cls-3" d="M215,181.2a4.31,4.31,0,0,1,.3,2.33q0,38,0,75.9c0,3.77,1.73,3.25-1.64,3.26q-8.64,0-17.28,0c-1.91,0-1.94,0-1.95-1.93q0-29.43,0-58.85a2.67,2.67,0,0,1,.85-2.28C202.36,193.55,207.81,187.43,215,181.2Z"/><path class="cls-3" d="M130.61,202.6l8.5,7.26a8.16,8.16,0,0,0,1,.92c1.37.79,1.69,2,1.68,3.51-.06,12.68,0,25.37,0,38.06,0,2.8,0,5.6,0,8.4,0,1.91,0,1.94-1.93,1.95q-9.21,0-18.43,0c-2.08,0-2.1,0-2.1-2.23,0-14.63.12-29.27-.08-43.89,0-3.38.75-5.69,3.55-7.59S128,204.8,130.61,202.6Z"/><path class="cls-3" d="M157.27,225.64a14,14,0,0,1,2.95,2.37c.9.94,1.57.78,2.5,0,4.91-4.34,9.88-8.62,14.84-12.91.44-.38.8-.94,1.52-1,.46.53.24,1.18.24,1.75q0,22.17,0,44.33c0,2.54,0,2.55-2.47,2.55h-18c-2,0-2,0-2-1.86q0-17.14,0-34.29A.84.84,0,0,1,157.27,225.64Z"/><path class="cls-3" d="M103.81,224.87a3.86,3.86,0,0,1,.36,2.28q0,16.57,0,33.16v.7c-.06,1.64-.06,1.68-1.71,1.68-4.45,0-8.91,0-13.36,0-1.92,0-3.84,0-5.76,0-1,0-1.39-.35-1.39-1.36,0-5.76,0-11.52,0-17.28a2.78,2.78,0,0,1,1.38-2.26q7.67-6.34,15.36-12.67Z"/><path class="cls-2" d="M147,164.71c.27.29,1,.17.82.85-.53,1.79.29,3.34.77,5,.24.82.44,1.66.6,2.5.39,2.07.37,2.1,2.29,2.4a14.27,14.27,0,0,0,9.53-1.83c1.2-.69,1.23-1,.23-1.85s-2.13-1.79-3.26-2.59a2,2,0,0,1-.93-2.73c.72-1.79,1.26-3.65,2.06-5.47a4.59,4.59,0,0,1,.11,2.72c-.33,3.32-.34,3.31,2.54,5,1.39.83,2.79,1.63,4.14,2.51s1.35,1,.33,2.33a14.22,14.22,0,0,1-6,4.56,15.35,15.35,0,0,1-12.52-.3c-1-.47-1.55-.88-1.23-2.27a10.44,10.44,0,0,0-.29-6,3.21,3.21,0,0,1,.59-3.64c.28-.3.65-.71.26-1.22Z"/><path class="cls-2" d="M230.63,108.31c.05,0,.09.08.13.13l-.16.1"/><path class="cls-2" d="M219.79,115c0-.25,0-.56.06-.87.07-.75.46-.91,1.1-.61a3.72,3.72,0,0,1,1.71,5.12c-.37.69-.78.92-1.38.23A5.8,5.8,0,0,1,219.79,115Z"/><path class="cls-2" d="M209.25,122.69l.1-.44c.33.25-.06.28-.13.42Z"/><path class="cls-2" d="M97.2,129.67l-.13.13.15-.11Z"/><path class="cls-2" d="M224.42,110.49l-.1.32c-.34-.28,0-.22.14-.28Z"/><path class="cls-2" d="M181.12,100.7a.49.49,0,0,1-.18-.13s0-.13,0-.13c.17,0,.22.1.14.29Z"/><line class="cls-4" x1="1" x2="1" y2="357"/></g></g></svg>