<svg xmlns="http://www.w3.org/2000/svg" xmlns:xlink="http://www.w3.org/1999/xlink" viewBox="0 0 403.32 694.31"><defs><style>.cls-1{fill:#21869e;}.cls-2{fill:#2dbae0;}.cls-3{fill:#2d2d2d;}.cls-4{opacity:0.28;fill:url(#Degradado_sin_nombre_10);}</style><linearGradient id="Degradado_sin_nombre_10" x1="-34.9" y1="93.61" x2="436.56" y2="565.08" gradientUnits="userSpaceOnUse"><stop offset="0" stop-color="#fff"/><stop offset="0.06" stop-color="#d5d5d5"/><stop offset="0.15" stop-color="#a4a4a4"/><stop offset="0.24" stop-color="#787878"/><stop offset="0.34" stop-color="#535353"/><stop offset="0.44" stop-color="#353535"/><stop offset="0.54" stop-color="#1d1d1d"/><stop offset="0.65" stop-color="#0d0d0d"/><stop offset="0.77" stop-color="#030303"/><stop offset="0.93"/></linearGradient></defs><g id="Capa_2" data-name="Capa 2"><g id="Capa_1-2" data-name="Capa 1"><path class="cls-1" d="M363.53,636.37,155.21,693.08A34.7,34.7,0,0,1,112,665.84L.61,56.77A36.78,36.78,0,0,1,23,16.06C26.93,14.47,41.43,7.13,46,7l201.45.59A25.31,25.31,0,0,1,273,28.06L386,600.07c1,4.95,11.47,11.93,10.2,16.5C393.38,626.9,374.53,633.38,363.53,636.37Z"/><path class="cls-2" d="M380.21,628.79,171.89,685.5a34.7,34.7,0,0,1-43.25-27.24L17.29,49.19A36.77,36.77,0,0,1,52.45,5.82L264.1,0a25.31,25.31,0,0,1,25.55,20.47l113.07,572A31.33,31.33,0,0,1,380.21,628.79Z"/><path class="cls-3" d="M374.9,621.2,177.44,675a32.89,32.89,0,0,1-41-25.82L26.36,53.63A34.85,34.85,0,0,1,59.68,12.52L260.3,7a24,24,0,0,1,24.22,19.41L396.23,586.79A29.7,29.7,0,0,1,374.9,621.2Z"/><path class="cls-4" d="M374.9,621.2,177.44,675a32.89,32.89,0,0,1-41-25.82L26.36,53.63A34.85,34.85,0,0,1,59.68,12.52L260.3,7a24,24,0,0,1,24.22,19.41L396.23,586.79A29.7,29.7,0,0,1,374.9,621.2Z"/></g></g></svg>