<svg xmlns="http://www.w3.org/2000/svg" viewBox="0 0 123.35 22.53"><defs><style>.cls-1{fill:#b0cb1f;}.cls-2{fill:none;stroke:#b0cb1f;stroke-miterlimit:10;stroke-width:0.25px;}</style></defs><g id="Capa_2" data-name="Capa 2"><g id="Capa_1-2" data-name="Capa 1"><path class="cls-1" d="M14.61,9.37V.21h3.3v22h-3.3V12.39H3.3v9.77H0V.21H3.3V9.37Z"/><path class="cls-1" d="M24.32,4H21.17V.71h3.15Zm0,18.16H21.2V6.25h3.09Z"/><path class="cls-1" d="M35.38,2.71H34a1.84,1.84,0,0,0-2.07,2.1V6.25h3.33V8.78H31.93V22.16H28.85V8.78H26.29V6.25h2.56V4.81q0-4.69,4.78-4.69c.3,0,.89,0,1.75.09Z"/><path class="cls-1" d="M47.77,15.22v-9h3.09V22.16h-3V19.78a5.71,5.71,0,0,1-5,2.75,5.58,5.58,0,0,1-4.1-1.48,5.61,5.61,0,0,1-1.48-4.13V6.25h3.09V16.49c0,2.22,1.12,3.32,3.36,3.32a3.77,3.77,0,0,0,2.85-1.21A4.71,4.71,0,0,0,47.77,15.22Z"/><path class="cls-1" d="M75.79,10.17l2.68-10h3.42l-6.16,22H72L69.26,11.89q-.81-3-1.91-7.61-1.11,4.62-1.92,7.61L62.66,22.16H59L52.8.21h3.42l2.68,10c.92,3.59,1.6,6.3,2,8.1,1.2-4.89,1.86-7.61,2-8.16L65.59.21H69.1l2.65,9.9c.15.55.81,3.27,2,8.16C74.19,16.47,74.87,13.76,75.79,10.17Z"/><path class="cls-1" d="M96.23,14.33v.89h-12a5.58,5.58,0,0,0,1.38,3.53,4.27,4.27,0,0,0,3.18,1.19,3.76,3.76,0,0,0,3.94-2.65h3.12a6.89,6.89,0,0,1-2.52,3.84,7.47,7.47,0,0,1-4.6,1.4,7.14,7.14,0,0,1-5.52-2.28,8.58,8.58,0,0,1-2.1-6,8.6,8.6,0,0,1,2.1-6.05,7.06,7.06,0,0,1,5.45-2.28,6.92,6.92,0,0,1,5.55,2.38A9.05,9.05,0,0,1,96.23,14.33ZM88.67,8.47a4.11,4.11,0,0,0-3,1.11,5.22,5.22,0,0,0-1.43,3.21h8.78a5.11,5.11,0,0,0-1.37-3.13A4,4,0,0,0,88.67,8.47Z"/><path class="cls-1" d="M106.74,6a8.23,8.23,0,0,1,.89,0V9h-.77a5.29,5.29,0,0,0-3.67,1.17,4.34,4.34,0,0,0-1.29,3.39v8.63H98.81V6.25h3V9.09A5.14,5.14,0,0,1,106.74,6Z"/><path class="cls-1" d="M123.23,14.33v.89h-12a5.58,5.58,0,0,0,1.38,3.53,4.27,4.27,0,0,0,3.18,1.19,3.76,3.76,0,0,0,3.94-2.65h3.12a6.89,6.89,0,0,1-2.52,3.84,7.47,7.47,0,0,1-4.6,1.4,7.15,7.15,0,0,1-5.52-2.28,8.58,8.58,0,0,1-2.1-6,8.6,8.6,0,0,1,2.1-6.05,7.06,7.06,0,0,1,5.45-2.28,6.92,6.92,0,0,1,5.55,2.38A9.05,9.05,0,0,1,123.23,14.33Zm-7.56-5.86a4.11,4.11,0,0,0-3,1.11,5.22,5.22,0,0,0-1.43,3.21h8.78a5.11,5.11,0,0,0-1.37-3.13A4,4,0,0,0,115.67,8.47Z"/><circle class="cls-2" cx="121.72" cy="1.63" r="1.51"/><path class="cls-1" d="M121.17,2.39V.84h.68a1.11,1.11,0,0,1,.31,0,.38.38,0,0,1,.18.15.46.46,0,0,1,.06.23.36.36,0,0,1-.11.28.5.5,0,0,1-.32.14l.12.08a.92.92,0,0,1,.17.21l.27.42h-.26l-.2-.33-.15-.21a.33.33,0,0,0-.11-.1l-.09,0h-.35v.69Zm.2-.87h.44a.65.65,0,0,0,.22,0,.22.22,0,0,0,.12-.09.23.23,0,0,0,0-.14.25.25,0,0,0-.08-.18.41.41,0,0,0-.25-.07h-.49Z"/></g></g></svg>