<svg xmlns="http://www.w3.org/2000/svg" viewBox="0 0 123.36 22.54"><defs><style>.cls-1,.cls-2{fill:#fff;}.cls-2{stroke:#b0cb1f;stroke-miterlimit:10;stroke-width:0.25px;}</style></defs><g id="Capa_2" data-name="Capa 2"><g id="Capa_1-2" data-name="Capa 1"><g id="Capa_2-2" data-name="Capa 2"><g id="Capa_1-2-2" data-name="Capa 1-2"><path class="cls-1" d="M14.61,9.37V.21h3.3v22h-3.3V12.4H3.3v9.76H0V.21H3.3V9.37Z"/><path class="cls-1" d="M24.32,4H21.17V.71h3.15Zm0,18.16H21.2V6.25h3.09Z"/><path class="cls-1" d="M35.38,2.72H34a1.83,1.83,0,0,0-2.07,1.57,1.51,1.51,0,0,0,0,.52V6.25h3.33V8.78H31.93V22.16H28.85V8.78H26.29V6.25h2.56V4.81c0-3.12,1.59-4.69,4.78-4.69a15.78,15.78,0,0,1,1.75.09Z"/><path class="cls-1" d="M47.77,15.23v-9h3.09V22.16h-3V19.79a5.72,5.72,0,0,1-5,2.75,5.63,5.63,0,0,1-4.1-1.48,5.62,5.62,0,0,1-1.48-4.13V6.25h3.09V16.49c0,2.22,1.12,3.32,3.36,3.32a3.72,3.72,0,0,0,2.85-1.21A4.69,4.69,0,0,0,47.77,15.23Z"/><path class="cls-1" d="M75.79,10.18l2.68-10h3.42l-6.16,22H72L69.26,11.9q-.81-3-1.91-7.61C66.61,7.37,66,9.9,65.43,11.9L62.66,22.16H59L52.8.21h3.42l2.68,10c.92,3.59,1.6,6.3,2,8.1,1.2-4.89,1.86-7.61,2-8.16L65.59.21H69.1l2.65,9.9c.15.55.81,3.27,2,8.17Q74.41,15.56,75.79,10.18Z"/><path class="cls-1" d="M96.23,14.33v.9h-12a5.5,5.5,0,0,0,1.38,3.52A4.31,4.31,0,0,0,88.79,20a3.77,3.77,0,0,0,3.94-2.65h3.12a7,7,0,0,1-2.52,3.84,7.49,7.49,0,0,1-4.6,1.4,7.13,7.13,0,0,1-5.52-2.29,8.59,8.59,0,0,1-2.1-6,8.65,8.65,0,0,1,2.1-6.05,7,7,0,0,1,5.45-2.27,6.89,6.89,0,0,1,5.55,2.38A9,9,0,0,1,96.23,14.33ZM88.67,8.48a4.1,4.1,0,0,0-3,1.1,5.26,5.26,0,0,0-1.43,3.21H93a5.14,5.14,0,0,0-1.37-3.13A4,4,0,0,0,88.67,8.48Z"/><path class="cls-1" d="M106.74,6h.89V9h-.77a5.3,5.3,0,0,0-3.67,1.18,4.32,4.32,0,0,0-1.29,3.39V22.2H98.81V6.25h3V9.1A5.16,5.16,0,0,1,106.74,6Z"/><path class="cls-1" d="M123.23,14.33v.9h-12a5.5,5.5,0,0,0,1.38,3.52,4.31,4.31,0,0,0,3.18,1.2,3.77,3.77,0,0,0,3.94-2.65h3.12a7,7,0,0,1-2.52,3.84,7.49,7.49,0,0,1-4.6,1.4,7.17,7.17,0,0,1-5.52-2.29,8.59,8.59,0,0,1-2.1-6,8.65,8.65,0,0,1,2.1-6.05,7,7,0,0,1,5.45-2.27,6.89,6.89,0,0,1,5.55,2.38A9,9,0,0,1,123.23,14.33Zm-7.56-5.86a4.15,4.15,0,0,0-3,1.11,5.26,5.26,0,0,0-1.43,3.21H120a5.14,5.14,0,0,0-1.37-3.13A4,4,0,0,0,115.67,8.47Z"/><circle class="cls-2" cx="121.72" cy="1.63" r="1.51"/><path class="cls-1" d="M121.17,2.4V.84h.68a1.61,1.61,0,0,1,.31,0,.4.4,0,0,1,.18.16.44.44,0,0,1,.06.23.32.32,0,0,1-.11.27.45.45,0,0,1-.32.14l.12.09a.87.87,0,0,1,.17.21l.27.42h-.26l-.2-.33-.15-.21a.26.26,0,0,0-.11-.1h-.44v.69Zm.2-.87h.44a.81.81,0,0,0,.22,0,.27.27,0,0,0,.12-.09.33.33,0,0,0,0-.14.23.23,0,0,0-.08-.18.37.37,0,0,0-.25-.07h-.49Z"/></g></g></g></g></svg>