<svg xmlns="http://www.w3.org/2000/svg" viewBox="0 0 442.2 262.49"><defs><style>.cls-1{opacity:0.83;}.cls-2{fill:#262626;}.cls-3{fill:#3082e0;stroke:#3082e0;stroke-miterlimit:10;stroke-width:1.5px;}</style></defs><g id="Capa_2" data-name="Capa 2"><g id="Capa_1-2" data-name="Capa 1"><g class="cls-1"><path class="cls-2" d="M0,218.64H16.61c8.73,0,14.67,5.76,14.67,14.4v.06c0,8.6-5.94,14.4-14.67,14.4H7.71v14.25H0Zm7.71,6.3v16.34h7c5.53,0,8.75-3,8.75-8.15v-.06c0-5.17-3.22-8.13-8.75-8.13Z"/><path class="cls-2" d="M36.9,218.64H54.11c9.2,0,14.82,5.1,14.82,13.44v.06c0,5.8-3.11,10.49-8.13,12.31l9.41,17.3H61.43L53,245.62H44.61v16.13H36.9Zm16.4,20.88c4.87,0,7.74-2.69,7.74-7.32v-.06c0-4.51-3-7.26-7.88-7.26H44.61v14.64Z"/><path class="cls-2" d="M73.69,240.21v-.06c0-13.69,7.91-22.26,20.46-22.26s20.44,8.57,20.44,22.26v.06c0,13.71-7.83,22.28-20.44,22.28S73.69,253.92,73.69,240.21Zm33.07,0v-.06c0-9.56-4.9-15.57-12.61-15.57s-12.61,6-12.61,15.57v.06c0,9.59,4.9,15.59,12.61,15.59S106.76,249.71,106.76,240.21Z"/><path class="cls-2" d="M120.72,218.64h27.49v6.48H128.43v12.76H146.5v6.27H128.43v17.6h-7.71Z"/><path class="cls-2" d="M153.8,218.64h7.7v43.11h-7.7Z"/><path class="cls-2" d="M179.64,225.12H166.73v-6.48H200.2v6.48H187.32v36.63h-7.68Z"/><path class="cls-2" d="M205.46,218.64h8.9l13.21,32.92h.21L241,218.64h8.91v43.11H243V231.09h-.24l-12.43,30.66h-5.23l-12.43-30.66h-.21v30.66h-7Z"/><path class="cls-2" d="M269.91,218.64h8.67L294,261.75H285.9l-3.65-11.15h-16l-3.65,11.15H254.5Zm-1.76,26h12.16l-6-18.35h-.18Z"/><path class="cls-2" d="M298.57,218.64h7.71v20.22h.21l16.7-20.22H332l-15.92,19,17.24,24.08h-9.39l-13.41-18.94-4.24,5.05v13.89h-7.71Z"/><path class="cls-2" d="M337.35,218.64h27.91v6.48h-20.2v11.62h19.09V243H345.06v12.27h20.2v6.49H337.35Z"/><path class="cls-2" d="M372,218.64h17.2c9.21,0,14.82,5.1,14.82,13.44v.06c0,5.8-3.1,10.49-8.12,12.31l9.41,17.3h-8.79L388,245.62h-8.34v16.13H372Zm16.4,20.88c4.87,0,7.74-2.69,7.74-7.32v-.06c0-4.51-3.05-7.26-7.89-7.26h-8.55v14.64Z"/><path class="cls-2" d="M408.44,250.1l0-.45h7.38l.06.36c.57,3.7,4.36,6,9.77,6s8.84-2.42,8.84-6.12v0c0-3.23-2.24-5-7.79-6.13l-4.64-.95c-8.48-1.77-12.66-5.71-12.66-12.13v0c0-7.59,6.69-12.73,16-12.73s15.57,5,16,12.34l0,.51H434l-.06-.36c-.5-3.77-3.82-6-8.66-6-5.05,0-8.19,2.39-8.19,5.83v0c0,3.05,2.36,4.84,7.56,5.91l4.66,1c9,1.85,12.88,5.5,12.88,12.22v0c0,8-6.33,13.14-16.85,13.14C415.46,262.49,409,257.83,408.44,250.1Z"/></g><path class="cls-2" d="M214.13,92.72c-.95-.4-1.81.09-2.67.31a57.78,57.78,0,0,1-18.53,1.38c-1.19-.08-2.14-.18-2.77,1.3-.76,1.77-2.58,2.09-4.31,2.12A22.77,22.77,0,0,1,177.57,96c-.57-.21-1.14-.44-1.71-.67a1,1,0,0,0-1.27.15c-2.56,2.8-6.05,4.21-9.09,6.3-4.51,3.11-8.4,6.8-10.71,11.93a27.3,27.3,0,0,0-2.52,11,2.89,2.89,0,0,0,1,2.43c2.65,2.36,5.24,4.8,7.83,7.23,1.23,1.15,1.22,1.29-.15,2.2a34.3,34.3,0,0,1-11,5.12,15,15,0,0,1-10.14-.68,2.59,2.59,0,0,1-1.79-2.63,72.37,72.37,0,0,0-.46-7.92,10.37,10.37,0,0,1,.72-5.2,36.74,36.74,0,0,0,2.22-20.6c-.11-.6-.11-1.23-.18-2.12-1.31,2.17-1.9,4.54-3.62,6.42a7.1,7.1,0,0,1-.88-2.56,13,13,0,0,0-3.16-6.12,7.85,7.85,0,0,1-2-6.08c-1.08,0-1.64.84-2.34,1.38-3.24,2.49-6.44,5-10.34,6.45a9.32,9.32,0,0,1-1.77.49c-3.23.5-4.77-.67-5.23-4a55.18,55.18,0,0,1-.58-13.71c.52-4.9,2.64-8.68,6.91-11.18a55,55,0,0,1,11.32-4.52c4.32-1.38,8.66-2.68,12.91-4.26a33.51,33.51,0,0,0,10.4-5.9c6.68-5.78,14.54-8.84,23-10.65a7.39,7.39,0,0,0,2.71-1.18A132.46,132.46,0,0,0,213.74,9.79c1.72-2.67,3.44-5.35,4.89-8.18A2.6,2.6,0,0,1,221.36,0c11.06.4,22,1.23,32.88,3.78a121,121,0,0,1,26,9.15,102.75,102.75,0,0,1,16.32,10c1.22.93,2.24,1.49,3.93,1s3.8.16,5.65.61A62.1,62.1,0,0,1,319,29c4,2,7.51,1.45,11-1.09A4,4,0,0,1,332,26.86a9.32,9.32,0,0,1-8.08,10.23c-3.35.62-6.57,0-9.77-.94-2.81-.79-5.61-1.62-8.59-1.18-4.79.71-7.63,3.61-8,8.47a6.76,6.76,0,0,1-1.44,3.8A44.32,44.32,0,0,0,291,55.81a11.82,11.82,0,0,0-1.07,5,4.45,4.45,0,0,0,1.32,3.28c-.18.83-.83.79-1.29.94-3.21,1.06-6.41,2.18-9.84,2.21a9.77,9.77,0,0,1-4.08-.53,5.21,5.21,0,0,1-3.31-4.41,4.6,4.6,0,0,1-.08-1.16,7.94,7.94,0,0,0-1.32-5.94,7.67,7.67,0,0,1-.71-2c-1.15.51-1.27,1.47-1.28,2.5a15.64,15.64,0,0,0,1.3,5.64c.46,1.23,1.06,2.41,1.58,3.63.66,1.52.64,1.61-.9,2.12a40.32,40.32,0,0,0-10.21,4.78,15,15,0,0,0-5.55,5.8c-2,4.18-4.9,4.94-9,3.66a9.11,9.11,0,0,0-6.41.21c-2.08.8-4.24,1.37-6.35,2.07a24.39,24.39,0,0,0-5.07,2.18,61.72,61.72,0,0,1-13.39,6.15c-.48.15-1.09.19-1.23.86Zm-49.79-35,0,0c0-1.28,1-1.85,1.79-2.52,1.41-1.17,2.87-2.28,4.31-3.42.26-.08.7-.25.58-.44-.23-.4-.6-.14-.87.1a12.92,12.92,0,0,0-1.78.47,52.18,52.18,0,0,0-12,6.8,67.61,67.61,0,0,1-29.19,13c-6.46,1.21-11.32,4.79-13.54,11.3-1.52,4.45-1.29,9.05-.43,13.61a2.43,2.43,0,0,0,3.09,2,11.85,11.85,0,0,0,2.6-.92,34.23,34.23,0,0,0,5.77-3.8c2.25-1.64,4.58-3.21,7.4-3.59,2.39-.33,2.94.35,2.41,2.66-.77,3.42,0,5.28,3,7.47a14.08,14.08,0,0,0,.79-5.72,5.82,5.82,0,0,0-8-5.12,38.51,38.51,0,0,0-7.6,4.32,11.72,11.72,0,0,1-3.44,1.86,3,3,0,0,1-4-2.16,5.78,5.78,0,0,1-.31-2.53,18.24,18.24,0,0,1,2-7.58,12.17,12.17,0,0,1,5.67-5.27,18.91,18.91,0,0,1,9.24-1.41,31.7,31.7,0,0,0,10.19-1.5,2.76,2.76,0,0,0,1.84-1.56,17.91,17.91,0,0,1,7.69-7.31A18.46,18.46,0,0,0,148.14,71c-3,4.88-4.91,10-3.66,15.92a27,27,0,0,1-1.07,15.8,4.32,4.32,0,0,0-.21,2.72,37,37,0,0,1-1.47,21.32,3.14,3.14,0,0,0-.41,1.79c.53,2.37.27,4.81.68,7.19.33,1.91.44,2.08,2.26,2.22a19.86,19.86,0,0,0,10.68-2.28c1.07-.54,1.13-.88.29-1.7-1.61-1.57-3.28-3.06-4.93-4.58a3.61,3.61,0,0,1-1.6-2.44,25.78,25.78,0,0,1,1.55-11.67,34.56,34.56,0,0,1,9.87-13c3.24-2.78,6.9-4.92,10.39-7.33,8.86-6.11,12.18-14.63,10.47-25.26-.07-.46-.18-.92-.23-1.38s-.34-.76.09-1.18c4.52,9.4,1.6,17.84-3.2,26a11,11,0,0,0,8.54,1.09,36.47,36.47,0,0,1-4.88-3c.18-.16.23-.25.28-.25.92,0,1.84,0,2.75.08a101,101,0,0,0,21.14-.54,61.16,61.16,0,0,0,20.34-6.33,7.43,7.43,0,0,0,3.45-3.55c2.12-4.49,4.36-8.91,6.55-13.37.93-1.9.91-1.9,2.91-1,1.19.53,2.4,1,3.59,1.57.57.26,1.17.54,1.74.12,1.69-1.25,3.36-2.54,5.18-3.93a4.61,4.61,0,0,0-2.57-.3c-7.14.17-14.29,0-21.43.46-2,.13-2,.06-2.74-1.71a29,29,0,0,1-2.36-13.18,9.1,9.1,0,0,1,1.4-4.69v1.74A27.81,27.81,0,0,0,224.78,59c.43.85.87,1.52,2,1.53,2.84,0,5.68.28,8.52.37,6.29.22,12.59.37,18.88.59,2.14.07,4.28.26,6.42.4a22.88,22.88,0,0,1-5.22,1.69,6.26,6.26,0,0,0-3.34,1.87c-2.32,2.16-4.69,4.25-7,6.44a2,2,0,0,1-2.47.46c-1.05-.48-2.2-.73-3.23-1.23s-1.54-.16-1.94.81c-1,2.37-2,4.72-2.94,7.09-.14.34-.31.73.26,1.12,1.9-.76,3.93-1.48,5.88-2.36s3.93-1.74,5.92,0a2.39,2.39,0,0,0,.85.35c2.13.64,3.62.15,4.64-1.89,2.28-4.58,6.06-7.33,10.59-9.2,2-.85,4.13-1.58,6.38-2.43a31,31,0,0,1-2.24-7.4A2.38,2.38,0,0,0,265,55.17c-3.1-1.14-6.17-2.35-9.26-3.53-2.22-.85-4.44-1.73-6.67-2.54-1-.36-1.47-.8-.72-1.82a6.3,6.3,0,0,0,.56-1c2.52-5,3-10.07.47-15.23-.37-.77-.73-1.53-1.09-2.3l0,0c.42-.17.72,0,1,.31a12.38,12.38,0,0,1,3.63,5.57,16.77,16.77,0,0,1,.24,9.42c-.45,1.83-.44,1.91,1.21,2.7a72.57,72.57,0,0,0,10.57,4.55,3.32,3.32,0,0,0,2.76,0,27.07,27.07,0,0,1-1-8c.17-3.12,1.2-6.17,2.68-7.41a32.43,32.43,0,0,0,4.07,18.52c.84-.27.94-1.16,1.38-1.76s.7-1.58,1.61-1.87l0,0c-.18.67-.31,1.36-.54,2a21.09,21.09,0,0,0-1.24,6.13c-.13,3.66,1.77,5.71,5.35,5.87a19.63,19.63,0,0,0,5.23-.65,1.49,1.49,0,0,0,1.35-1.94c-.48-3.57.73-6.72,2.58-9.69a36,36,0,0,1,4.24-5.5,2.84,2.84,0,0,0,1.05-2A12.09,12.09,0,0,1,297,37.64a.76.76,0,0,0,.12-.88c-.89-.33-1.57.32-2.36.55-1.08.32-1.9,1.34-3.15,1.21l0,0a1.57,1.57,0,0,1,.51-1,15.66,15.66,0,0,1,14.94-5.32c3.33.53,6.58,1.5,9.93,2,3,.44,5.14.28,7.06-.83-4.63.41-8.64-1.08-12.53-3A23.26,23.26,0,0,0,305,28.14a35.75,35.75,0,0,0-12.59.35c-1.87.36-3.73.78-6.11,1.28,2.51-2.41,5.37-2.87,7.88-4-.05-.63-.56-.77-.91-1-2.29-1.59-4.65-3-7.06-4.4A119.47,119.47,0,0,0,251.5,7.62c-4.06-.85-8.14-1.53-12.24-2.13-4.93-.72-9.91-1-14.88-1.48a2.4,2.4,0,0,0-2.76,1.76,41.87,41.87,0,0,1-5.11,8.56,111,111,0,0,1-15.3,16.46c-9.33,8.34-18.66,16.66-29.86,22.46C168.9,54.52,166.67,56.21,164.34,57.7ZM141,100.76a7.29,7.29,0,0,0,.58-1,23.73,23.73,0,0,0,.58-12.86,12.45,12.45,0,0,1,.09-6.66c.29-1,.57-2,.91-3.25-2.18.48-4.16,1-6.16,1.34-2.88.56-5.81.32-8.72.43a9.43,9.43,0,0,0-7,3A14,14,0,0,0,118,87.81a9.17,9.17,0,0,0-.18,5.27c.33,1,.77,1,1.51.56.26-.17.51-.35.77-.51,3.21-2,6.37-4,9.64-5.89s6.81-1.06,9.14,2.07a12.39,12.39,0,0,1,2.2,8.81A5.58,5.58,0,0,0,141,100.76ZM297.75,36.57l.15-.1s-.08-.12-.12-.13-.11.06-.16.09Z"/><path class="cls-3" d="M273.72,86.2l-14.22-.55c11-3.94,22.21-7.31,33.85-10.91-3,11.24-6.18,22-9.33,32.75-.79-3.72-.36-7.53-.77-11.29-.87,0-1.24.57-1.68,1Q269,108.06,256.38,119c-8.93,7.74-17.88,15.45-26.77,23.23a1.35,1.35,0,0,1-2.14,0q-8.15-7.05-16.33-14.06c-4.1-3.53-8.23-7-12.29-10.57-.94-.83-1.51-.58-2.32.1q-9.15,7.65-18.34,15.25-14.43,12-28.8,23.93c-.77-.22-.5-.78-.5-1.18,0-2.88,0-5.76,0-8.64,0-1,.17-1.72,1.38-2,5.7-1.21,12.62-5.36,17.25-9.05L163,131.77c-.39-.37-.76-.78-1.18-1.11-.79-.62-.87-1.16,0-1.83,1.27-1,2.48-2.1,3.72-3.13q14.7-12.21,29.42-24.4c3.44-2.83,2.36-2.64,5.54.06,8.83,7.48,17.59,15.06,26.39,22.59,1.71,1.47,1.72,1.44,3.37,0L267.2,92C269.25,90.19,271.25,88.38,273.72,86.2Z"/><path class="cls-3" d="M282.14,109.24a4.29,4.29,0,0,1,.3,2.33q0,38,0,75.9c0,3.77,1.73,3.24-1.64,3.25q-8.64,0-17.28,0c-1.91,0-1.94,0-1.94-1.93q0-29.41,0-58.85a2.65,2.65,0,0,1,.84-2.27C269.5,121.58,275,115.46,282.14,109.24Z"/><path class="cls-3" d="M197.75,130.63l8.5,7.27a7.37,7.37,0,0,0,1,.91c1.37.79,1.69,2,1.68,3.51-.05,12.69,0,25.37,0,38.06,0,2.8,0,5.6,0,8.4,0,1.92,0,1.95-1.93,1.95q-9.21,0-18.43,0c-2.08,0-2.09,0-2.1-2.24,0-14.63.12-29.26-.08-43.89,0-3.37.75-5.68,3.55-7.59S195.09,132.84,197.75,130.63Z"/><path class="cls-3" d="M224.41,153.67a14.09,14.09,0,0,1,3,2.37c.91.94,1.58.78,2.5,0,4.92-4.34,9.88-8.62,14.84-12.9.44-.39.8-.94,1.52-1,.46.54.24,1.18.24,1.76q0,22.16,0,44.32c0,2.55,0,2.56-2.47,2.56-6,0-12,0-17.95,0-2,0-2.05,0-2.05-1.86q0-17.15,0-34.29A.85.85,0,0,1,224.41,153.67Z"/><path class="cls-3" d="M171,152.9a4,4,0,0,1,.36,2.29v33.15c0,.23,0,.47,0,.7-.06,1.64-.06,1.68-1.71,1.69-4.45,0-8.91,0-13.36,0-1.92,0-3.84,0-5.76,0-1,0-1.39-.34-1.38-1.36,0-5.75,0-11.51,0-17.27a2.82,2.82,0,0,1,1.38-2.27q7.67-6.34,15.36-12.67C167.49,155.81,169.14,154.42,171,152.9Z"/><path class="cls-2" d="M214.11,92.74c.27.29,1,.18.83.85-.54,1.79.28,3.35.76,5,.24.81.44,1.65.6,2.49.39,2.07.38,2.1,2.29,2.4a14.23,14.23,0,0,0,9.54-1.83c1.19-.68,1.23-1,.22-1.84s-2.13-1.79-3.26-2.59a2,2,0,0,1-.93-2.73c.72-1.79,1.26-3.66,2.06-5.48a4.52,4.52,0,0,1,.12,2.72c-.34,3.32-.35,3.32,2.53,5,1.39.83,2.79,1.63,4.15,2.52s1.34,1,.32,2.32a14.22,14.22,0,0,1-6,4.56,15.31,15.31,0,0,1-12.52-.3c-1-.46-1.54-.88-1.23-2.26a10.48,10.48,0,0,0-.29-6,3.23,3.23,0,0,1,.59-3.64c.28-.3.65-.71.26-1.22Z"/><path class="cls-2" d="M297.78,36.34s.08.08.12.13l-.15.1"/><path class="cls-2" d="M286.93,43c0-.25,0-.56.06-.87.07-.74.46-.91,1.1-.61a3.72,3.72,0,0,1,1.71,5.12c-.37.7-.78.92-1.38.23A5.8,5.8,0,0,1,286.93,43Z"/><path class="cls-2" d="M276.39,50.73l.1-.45c.33.26-.06.29-.13.42Z"/><path class="cls-2" d="M164.34,57.7l-.13.14.15-.11Z"/><path class="cls-2" d="M291.56,38.52l-.1.32c-.33-.28,0-.21.14-.28Z"/><path class="cls-2" d="M248.26,28.73a.81.81,0,0,1-.18-.12s0-.14,0-.14c.17,0,.22.11.14.29Z"/></g></g></svg>