<svg xmlns="http://www.w3.org/2000/svg" viewBox="0 0 787.61 107.58"><defs><style>.cls-1{fill:#fff;}</style></defs><g id="Capa_2" data-name="Capa 2"><g id="Capa_1-2" data-name="Capa 1"><path class="cls-1" d="M535.76,69.28c7.52-15.38,16.58-22.42,23-26,18-10,33.5-2.89,65-9a156.7,156.7,0,0,0,30-9c-1.66,7.41-12,38-39,55-8.88,5.59-22,8-42,8-10,0-18.11.47-40-5-4-1-8-2-15,3,0-2,3.47-5.48,6-7,20-12,56,8,91-19C578.76,72.28,560.76,71.28,535.76,69.28Z"/><path class="cls-1" d="M45.07,15.3a11,11,0,0,0-8-3.25,10.51,10.51,0,0,0-7.82,3.25A10.74,10.74,0,0,0,26,23.19a10.57,10.57,0,0,0,3.25,7.75q2.49,2.64,9.28,3.05a35,35,0,0,1,12,2.7A35.64,35.64,0,0,1,67.56,50a35.21,35.21,0,0,1,6.79,21A34.75,34.75,0,0,1,63.41,96.78a36,36,0,0,1-26.24,10.8,35.77,35.77,0,0,1-26-10.6Q.28,86.54,0,70.13H9.9Q10.17,82.31,18.14,90a26.41,26.41,0,0,0,19,7.69,26.1,26.1,0,0,0,19.18-7.89,25.37,25.37,0,0,0,8-18.83,25.59,25.59,0,0,0-8-19q-8.1-7.89-18.35-8.41T23.4,39a7.44,7.44,0,0,1-1.18-1,19.82,19.82,0,0,1-6.16-14.81A20.18,20.18,0,0,1,22.29,8.31,20,20,0,0,1,37.1,2.15a20.74,20.74,0,0,1,15,6.16l3.8,3.8-8.51,6.44A10.66,10.66,0,0,0,45.07,15.3Z"/><path class="cls-1" d="M91.31,105.91h-10V3.81h10Z"/><path class="cls-1" d="M197.7.21l.14,105.7h-9.62V37.8L147,107.23,106.18,38.49v67.42H96.7V0l50.74,87.22Z"/><path class="cls-1" d="M311.17,106.05H300l-43.26-82-43.69,82H202.07l48.25-91.86v-.07l6.37-11.9,5.95,11.35Z"/><path class="cls-1" d="M363.39,72.76l18.76,33.15H370.39L357.51,83.07l-12.88,22.84H332.8l18.83-33.15L312.58,3.81h11.77L357.51,62.3,390.6,3.81h11.84Z"/><path class="cls-1" d="M487,14H418.68v92l-10.31-.07V3.81H487Zm-.28,63.69H427.34v-10h59.39Z"/><path class="cls-1" d="M592.38,93.21l6.74,12.84H587.9L581.12,93.2ZM553.56,41l-8.92-16.91-43.68,82H490l48.25-91.86v-.07l6.37-11.9,6,11.35,11.57,22Z"/><path class="cls-1" d="M606,30.23a54.07,54.07,0,0,1,9.39-12.44,52.25,52.25,0,0,1,69.36-4.15q14.13,10.93,18.76,29.14h-9.89A43.21,43.21,0,0,0,678.2,20.42,43.13,43.13,0,0,0,622,24.37a45.54,45.54,0,0,0-5,5.9Zm13.51,52.32q1.15,1.36,2.46,2.67a43.05,43.05,0,0,0,55.79,4.22,43.2,43.2,0,0,0,15.65-21.6h9.76a52.59,52.59,0,0,1-18.83,28.45,51.07,51.07,0,0,1-32,10.87,50.24,50.24,0,0,1-37-15.37c-1.36-1.36-2.64-2.76-3.82-4.2Z"/><path class="cls-1" d="M787.61,14H719.29V95.81h68.32v10.1H709V3.81h78.64Zm-.28,63.69H727.94v-10h59.39Z"/></g></g></svg>